<?xml version="1.0" encoding="UTF-8" standalone="no"?>
<svg
   xmlns:dc="http://purl.org/dc/elements/1.1/"
   xmlns:cc="http://creativecommons.org/ns#"
   xmlns:rdf="http://www.w3.org/1999/02/22-rdf-syntax-ns#"
   xmlns:svg="http://www.w3.org/2000/svg"
   xmlns="http://www.w3.org/2000/svg"
   xmlns:sodipodi="http://sodipodi.sourceforge.net/DTD/sodipodi-0.dtd"
   xmlns:inkscape="http://www.inkscape.org/namespaces/inkscape"
   version="1.1"
   viewBox="0 0 100.0 100.0"
   id="svg2"
   width="28.222222912098783mm"
   height="28.222222912098783mm"
   sodipodi:docname="earCoreSlice.svg"
   inkscape:version="0.92.3 (2405546, 2018-03-11)">
  <metadata
     id="metadata12">
    <rdf:RDF>
      <cc:Work
         rdf:about="">
        <dc:format>image/svg+xml</dc:format>
        <dc:type
           rdf:resource="http://purl.org/dc/dcmitype/StillImage" />
      </cc:Work>
    </rdf:RDF>
  </metadata>
  <defs
     id="defs4" />
  <sodipodi:namedview
     id="base"
     pagecolor="#ffffff"
     bordercolor="#666666"
     borderopacity="1.0"
     inkscape:pageopacity="0.0"
     inkscape:pageshadow="2"
     inkscape:document-units="mm"
     inkscape:current-layer="layer1"
     showgrid="false"
     inkscape:zoom="1.5644737"
     inkscape:cx="-12.380468"
     inkscape:cy="-17.293949"
     inkscape:window-width="1149"
     inkscape:window-height="1865"
     inkscape:window-x="51"
     inkscape:window-y="27"
     inkscape:window-maximized="1" />
  <g
     inkscape:label="Slice 1"
     inkscape:groupmode="layer"
     id="layer1">
    <g
       id="g371">
      <path
         style="fill:none;stroke:#dc143c;stroke-width:1"
         d="m 117.68168,197.68304 -0.17107,0.59874 c -2.70272,6.48897 -4.24915,13.48542 -7.5309,19.62173 -3.82949,5.93715 -9.04975,11.42065 -16.332875,12.71035 -11.484859,3.3253 -23.643708,2.88305 -35.447296,4.47217 -9.746317,-0.13087 -19.411432,-1.95309 -29.144012,-2.75835 -11.380882,-1.95732 -22.5182068,-5.44335 -33.7733339,-7.95465 -9.6186421,0.55431 -17.6066631,7.71541 -27.2855311,8.12463 -5.882091,-0.97414 -12.212721,-1.17619 -17.620124,-3.93396 -8.422279,-3.55393 -16.474047,-7.90732 -23.949682,-13.25776 -8.026913,-4.32848 -13.875592,-11.32526 -20.402251,-17.50969 -7.858925,-7.16957 -14.770005,-15.28053 -21.167555,-23.80352 -4.80991,-4.9244 -7.57866,-11.11063 -10.062,-17.41798 -4.39599,-10.65085 -6.2525,-22.17707 -7.74203,-33.52764 -0.21298,-7.57081 0.0581,-15.34916 0.78257,-22.87072 3.37761,-8.220013 10.58952,-14.168804 16.42259,-20.69937 8.93243,-7.254971 18.581222,-13.635207 28.269525,-19.846606 9.165139,-6.677468 19.604323,-11.073614 29.808463,-15.90684 5.95622,-2.441937 11.357014,-3.763653 17.242222,-5.66994 7.837514,-3.060978 16.201111,-3.857572 24.533667,-3.945542 13.8552073,1.884094 27.836673,3.279215 41.363718,7.049408 9.187226,1.832479 18.038821,4.976839 26.344651,9.408824 9.367486,4.951331 20.406902,6.993769 28.226411,14.540879 6.933417,4.569493 11.206148,11.646144 15.738363,18.389935 6.28976,7.770531 9.75211,17.044422 13.99455,26.018822 3.70501,8.40656 6.97471,17.23583 8.15963,26.41388 2.68219,11.1019 1.90196,22.69391 2.99271,34.04276 -0.48674,9.22035 -1.75452,18.58554 -3.25004,27.7132"
         id="line0"
         inkscape:connector-curvature="0"
         sodipodi:nodetypes="cccccccccccccccccccccccccccc" />
    </g>
  </g>
  <g
     inkscape:label="Slice 2"
     inkscape:groupmode="layer"
     id="layer2">
    <g
       id="g372">
      <path
         style="fill:none;stroke:#808080;stroke-width:1"
         d="m -5.5732782,193.5472 -4e-7,-0.65118 c 1.4044028,-5.33926 6.40369341,-8.93327 10.5207542,-12.23145 3.5329379,0.55094 6.5324364,3.36569 9.9220304,4.7043 2.33618,1.70114 4.787109,3.74866 6.67169,5.64517 1.869377,3.71217 0.593418,7.84695 -2.052841,10.86289 -2.157841,1.10014 -4.512923,1.77003 -5.474213,4.36212 -3.119019,4.2007 -8.3847337,0.12222 -12.3169796,-0.59857 -2.65975084,-3.52027 -5.0089121,-7.61088 -7.2704402,-11.54713 z"
         id="line1"
         inkscape:connector-curvature="0"
         sodipodi:nodetypes="cccccccccc" />
    </g>
  </g>
  <g
     inkscape:label="Slice 3"
     inkscape:groupmode="layer"
     id="layer3" />
</svg>
