<?xml version="1.0" encoding="UTF-8" ?>
<svg    xmlns:dc="http://purl.org/dc/elements/1.1/" xmlns:cc="http://creativecommons.org/ns#" xmlns:rdf="http://www.w3.org/1999/02/22-rdf-syntax-ns#" xmlns:svg="http://www.w3.org/2000/svg" xmlns="http://www.w3.org/2000/svg" xmlns:sodipodi="http://sodipodi.sourceforge.net/DTD/sodipodi-0.dtd" xmlns:inkscape="http://www.inkscape.org/namespaces/inkscape" version="1.1"
 viewBox="-133.19087140087794 65.94184949505997 254.20877233715743 201.51947093753125"
 id="svg2" 
width="71.74336639110227mm"
 height="56.87327429927219mm">
 <defs  
  id="defs4" /> 
 <sodipodi:namedview 
  id="base" 
  pagecolor="#ffffff" 
  bordercolor="#666666" 
  borderopacity="1.0" 
 inkscape:pageopacity="0.0" 
 inkscape:pageshadow="2" 
  inkscape:document-units="mm" 
  inkscape:current-layer="layer1" 
 showgrid="false" 
  />
<g
inkscape:label="Slice 1"
inkscape:groupmode="layer" 
id="layer1" 
><g
id="g371">
  <polyline points="117.68205230870575,97.68580241644142 117.68205230870575,97.42919867585883 117.85312146909416,97.00152577488784 118.02419062948253,96.40278371352846 118.36632895025932,94.1788846284793 118.45186353045352,93.7512117275083 118.96507101161872,89.21787897721579 119.05060559181292,88.875740656439 119.05060559181292,88.44806775546802 119.13614017200713,88.19146401488541 119.13614017200713,87.67825653372022 119.22167475220134,87.16504905255503 119.30720933239549,86.73737615158404 119.30720933239549,86.30970325061305 119.3927439125897,85.62542660905947 119.4782784927839,85.11221912789428 119.73488223336653,82.80278546265092 119.9914859739491,81.00655927857275 120.16255513433752,79.1247985143004 120.50469345511429,76.13108820750345 120.5902280353085,75.78894988672666 120.76129719569687,73.82165454226009 120.93236635608528,72.79523957992971 120.93236635608528,72.45310125915292 120.93236635608528,72.11096293837613 121.01790093627949,71.85435919779353 121.01790093627949,71.42668629682254 121.01790093627949,70.82794423546315 120.93236635608528,70.57134049488056 120.93236635608528,69.97259843352117 120.84683177589108,69.54492553255018 120.84683177589108,69.28832179196758 120.76129719569687,68.2619068296372 120.6757626155027,67.91976850886041 120.6757626155027,67.32102644750103 120.6757626155027,66.97888812672423 120.5902280353085,66.72228438614164 120.5902280353085,65.78140400400545 120.5902280353085,65.18266194264606 120.50469345511429,64.58391988128668 120.50469345511429,64.15624698031569 120.50469345511429,63.81410865953889 120.41915887492009,63.0442974377911 120.41915887492009,62.18895163584912 120.33362429472588,60.90593293293615 120.33362429472588,60.30719087157676 120.33362429472588,59.70844881021737 120.33362429472588,59.45184506963477 120.24808971453167,57.655618885556606 120.16255513433752,57.31348056477981 120.16255513433752,56.97134224400302 120.16255513433752,56.37260018264363 120.16255513433752,55.94492728167264 120.16255513433752,55.60278896089585 120.0770205541433,54.23423567778868 119.9914859739491,53.721028196623486 119.9914859739491,53.293355295652496 119.9914859739491,52.78014781448731 119.9914859739491,52.52354407390471 119.9914859739491,52.01033659273953 119.9914859739491,51.75373285215693 119.9914859739491,51.49712911157433 119.90595139375489,51.15499079079754 119.90595139375489,50.641783309632345 119.90595139375489,50.04304124827296 119.90595139375489,49.70090292749616 119.82041681356068,49.35876460671937 119.82041681356068,48.58895338497159 119.82041681356068,48.1612804840006 119.82041681356068,47.819142163223795 119.82041681356068,47.56253842264121 119.73488223336653,47.049330941476015 119.73488223336653,46.62165804050503 119.73488223336653,46.365054299922434 119.73488223336653,46.02291597914564 119.64934765317233,45.766312238563046 119.56381307297812,45.25310475739785 119.4782784927839,44.996501016815266 119.4782784927839,44.65436269603847 119.3927439125897,44.22668979506747 119.22167475220134,43.1147402525429 119.13614017200713,42.6870673515719 119.05060559181292,42.4304636109893 119.05060559181292,42.173859870406716 118.96507101161872,41.831721549629926 118.8795364314245,41.40404864865892 118.8795364314245,41.06191032788213 118.79400185123035,40.80530658729953 118.79400185123035,40.46316826652274 118.62293269084194,40.03549536555175 118.62293269084194,39.69335704477496 118.53739811064773,39.35121872399817 118.53739811064773,39.094614983415575 118.45186353045352,38.752476662638784 118.36632895025932,38.495872922056186 118.36632895025932,38.15373460127939 118.28079437006515,37.8115962805026 118.19525978987095,37.38392337953161 118.10972520967674,37.12731963894902 118.10972520967674,36.87071589836642 117.93865604928833,35.929835516230234 117.93865604928833,35.587697195453444 117.85312146909416,35.331093454870846 117.76758688889996,34.903420553899856 117.76758688889996,34.64681681331726 117.68205230870575,34.219143912346276 117.59651772851154,33.70593643118108 117.51098314831734,33.36379811040429 117.42544856812313,33.02165978962749 117.42544856812313,32.765056049044894 117.33991398792897,32.33738314807391 117.25437940773476,31.73864108671452 117.16884482754055,31.31096818574352 117.08331024734635,30.883295284772533 116.99777566715214,30.113484063024753 116.91224108695798,29.77134574224795 116.91224108695798,29.51474200166535 116.82670650676377,29.17260368088857 116.74117192656956,28.744930779917585 116.65563734637536,28.488327039334987 116.57010276618115,28.23172329875239 116.484568185987,27.889584977975584 116.31349902559859,27.547446657198805 116.22796444540437,27.11977375622782 116.14242986521016,26.777635435451014 115.8858261246276,26.093358793897426 115.71475696423919,25.409082152343842 115.62922238404497,25.152478411761244 115.45815322365661,24.81034009098444 115.3726186434624,24.382667190013454 115.20154948307399,24.040528869236674 114.773876582103,22.671975586129506 114.60280742171463,22.15876810496431 114.34620368113201,21.38895688321652 113.57639245938424,19.165057798167375 113.14871955841326,17.796504515060178 112.63551207724807,16.256882071564622 112.46444291685964,15.829209170593632 112.46444291685964,15.316001689428438 112.20783917627708,14.973863368651633 112.12230459608287,14.631725047874854 111.95123543569446,14.28958672709805 111.60909711491767,13.519775505350282 111.01035505355827,12.407825962825685 110.2405438318105,10.440530618359139 110.06947467142209,10.098392297582333 109.2141288694801,8.387700693698385 109.1285942892859,8.131096953115787 108.70092138831492,7.190216570979605 108.6153868081207,6.933612830397007 108.44431764773235,6.50593992942602 107.93111016656715,5.479524967095631 107.76004100617874,5.137386646318825 107.50343726559616,4.624179165153656 107.16129894481934,3.854367943405864 106.73362604384835,2.913487561269682 106.56255688345998,2.5713492404928773 106.30595314287736,1.9726071791335 105.79274566171216,0.860657636608928 105.6216765013238,0.6040538960263306 105.5361419211296,0.3474501554437333 105.45060734093538,0.0908464148611359 105.27953818054696,-0.16575732572146148 104.85186527957597,-1.2777068682460333 104.59526153899341,-1.7053797692170207 104.25312321821663,-2.389656410770605 104.08205405782822,-2.817329311741618 103.99651947763401,-3.07393305232419 103.73991573705143,-3.5016059532952024 102.45689703413842,-6.238712519509541 102.02922413316743,-7.26512748183993 101.77262039258487,-7.521731222422503 101.77262039258487,-7.7783349630051 101.43048207180809,-8.206007863976113 101.08834375103126,-8.80474992533549 100.91727459064289,-9.061353665918087 100.74620543025448,-9.403491986694867 100.31853252928349,-10.00223404805427 98.35123718481691,-12.739340614268608 98.2657026046227,-12.995944354851204 97.7524951234575,-13.68022099640479 96.89714932151554,-14.877705119123569 95.78519977899099,-16.502862142813335 94.074508175107,-18.983364968445102 93.73236985433022,-19.496572449610273 93.13362779297081,-20.35191825155227 91.50847076928108,-22.746886496989806 88.9424333634551,-26.510408025534534 88.17262214170732,-27.536822987864923 88.00155298131891,-27.878961308641728 87.65941466054214,-28.221099629418507 87.31727633976536,-28.56323795019531 86.71853427840595,-29.16198001155469 86.29086137743496,-29.589652912525676 84.58016977355099,-31.12927535602126 84.15249687258,-31.47141367679804 83.89589313199741,-31.728017417380638 83.46822023102642,-32.070155738157446 82.18520152811342,-33.182105280682016 81.75752862714245,-33.52424360145879 81.50092488655984,-33.78084734204139 80.04683702325849,-34.89279688456599 76.53991923529637,-37.80097261116872 74.48708931063558,-39.42612963485848 74.23048557005299,-39.51166421505269 73.5462089284994,-39.85380253582947 71.23677526325605,-40.96575207835407 70.72356778209085,-41.136821238742456 70.03929114053727,-41.47895955951924 69.78268739995467,-41.564494139713446 68.4141341168475,-42.248770781267034 67.98646121587652,-42.41983994165542 67.64432289509973,-42.59090910204384 66.70344251296356,-43.01858200301482 66.44683877238096,-43.10411658320903 66.10470045160416,-43.27518574359742 65.84809671102155,-43.360720323791604 65.59149297043896,-43.44625490398581 65.33488922985636,-43.6173240643742 64.99275090907958,-43.70285864456841 64.73614716849698,-43.788393224762615 64.308474267526,-43.95946238515101 63.53866304577821,-44.30160070592778 63.28205930519561,-44.38713528612199 62.255644342865246,-44.81480818709298 61.99904060228265,-44.98587734748137 61.05816022014646,-45.328015668258175 60.801556479563864,-45.499084828646566 59.94621067762187,-45.84122314942337 59.689606937039294,-45.92675772961755 57.636777012378516,-46.78210353155955 56.86696579063075,-47.12424185233633 56.61036205004815,-47.20977643253054 56.353758309465555,-47.38084559291893 56.09715456888296,-47.46638017311314 55.32734334713516,-47.80851849388991 53.10344426208602,-48.834933456220305 52.590236780920826,-49.0915371968029 52.33363304033823,-49.17707177699711 51.82042555917303,-49.43367551757968 51.22168349781366,-49.69027925816228 50.79401059684267,-49.946882998744876 49.85313021470649,-50.374555899715865 49.510991893929685,-50.54562506010428 49.25438815334709,-50.63115964029846 48.48457693159929,-50.97329796107527 47.287092808880516,-51.57204002243464 46.859419907909526,-51.743109182823055 46.004074105967554,-52.170782083794045 44.54998624266617,-52.94059330554184 44.207847921889396,-53.11166246593023 43.9512441813068,-53.19719704612441 43.4380367001416,-53.453800786707006 42.58269089819963,-53.710404527289604 42.240552577422825,-53.9670082678722 41.385206775480846,-54.30914658864901 40.78646471412144,-54.565750329231605 40.10218807256786,-54.822354069814175 39.76004975179108,-54.90788865000838 38.733634789460694,-55.250026970785186 37.7072198271303,-55.677699871756175 37.194012345965135,-55.84876903214457 36.766339444994124,-55.93430361233877 36.338666544023134,-56.105372772727165 36.082062803440536,-56.19090735292137 35.82545906285794,-56.19090735292137 34.970113260915966,-56.44751109350397 34.45690577975077,-56.61858025389236 34.02923287877978,-56.70411483408654 33.6015599778088,-56.789649414280746 33.17388707683781,-56.87518399447495 32.91728333625521,-56.96071857466914 32.48961043528422,-57.13178773505755 31.976402954119028,-57.217322315251735 31.206591732371237,-57.47392605583433 30.436780510623443,-57.644995216222725 29.923573029458275,-57.73052979641693 29.49590012848726,-57.90159895680532 29.23929638790469,-57.90159895680532 28.982692647322093,-57.98713353699953 28.726088906739495,-58.072668117193736 28.127346845380092,-58.24373727758213 27.870743104797494,-58.24373727758213 27.6141393642149,-58.329271857776334 27.357535623632327,-58.41480643797051 27.10093188304973,-58.500341018164725 26.84432814246713,-58.500341018164725 26.502189821690326,-58.5858755983589 26.07451692071934,-58.67141017855311 25.475774859359962,-58.8424793389415 25.133636538583158,-58.92801391913571 24.449359897029574,-59.0990830795241 24.10722157625277,-59.184617659718306 23.76508325547599,-59.27015223991249 23.337410354505,-59.3556868201067 23.0808066139224,-59.441221400300904 22.653133712951416,-59.52675598049509 21.626718750621027,-59.78335972107769 21.37011501003843,-59.868894301271894 20.942442109067443,-59.9544288814661 20.514769208096453,-60.03996346166028 20.00156172693126,-60.21103262204867 19.488354245766065,-60.296567202242876 19.231750505183467,-60.38210178243708 18.80407760421248,-60.46763636263127 18.4619392834357,-60.553170942825474 18.119800962658896,-60.63870552301968 17.8631972220763,-60.724240103213866 17.6065934814937,-60.80977468340807 17.178920580522714,-60.89530926360228 16.49464393896913,-61.06637842399067 16.152505618192325,-61.151913004184856 15.382694396444558,-61.32298216457327 15.040556075667752,-61.408516744767454 14.783952335085155,-61.408516744767454 14.356279434114168,-61.49405132496166 13.158795311395387,-61.75065506554426 12.902191570812791,-61.75065506554426 12.560053250036011,-61.836189645738465 12.217914929259207,-61.92172422593264 11.70470744809401,-62.007258806126856 11.277034547123025,-62.092793386321034 11.020430806540427,-62.092793386321034 10.336154164986842,-62.26386254670945 9.994015844210063,-62.26386254670945 9.39527378285066,-62.34939712690363 9.138670042268062,-62.43493170709784 8.796531721491283,-62.43493170709784 8.112255079937698,-62.60600086748623 7.855651339355101,-62.60600086748623 7.427978438384113,-62.69153544768044 7.085840117607309,-62.69153544768044 6.829236377024712,-62.77707002787464 6.401563476053724,-62.77707002787464 6.059425155276944,-62.86260460806883 5.54621767411175,-62.948139188263035 5.289613933529152,-62.948139188263035 4.69087187216975,-63.03367376845722 4.263198971198762,-63.119208348651426 4.006595230616165,-63.20474292884563 2.638041947508996,-63.375812089234024 1.2694886644018266,-63.54688124962241 0.756281183236632,-63.63241582981662 0.1575391218772548,-63.7179504100108 -0.4412029394821475,-63.80348499020501 -1.125479581035732,-63.88901957039921 -1.3820833216183295,-63.88901957039921 -2.3229637037545117,-64.06008873078761 -3.0927749255022787,-64.14562331098182 -4.033655307638461,-64.3166924713702 -6.770761873852824,-64.74436537234119 -7.797176836183189,-64.8298999525354 -8.310384317348383,-64.91543453272958 -8.566988057930981,-64.91543453272958 -8.823591798513577,-65.00096911292378 -11.13302546375693,-65.3431074337006 -11.560698364727918,-65.42864201389477 -11.817302105310514,-65.42864201389477 -12.159440426087318,-65.51417659408898 -12.416044166669916,-65.51417659408898 -13.1003208082235,-65.59971117428317 -13.61352828938867,-65.68524575447738 -14.126735770553866,-65.77078033467158 -14.46887409133067,-65.77078033467158 -15.238685313078463,-65.94184949505997 -16.350634855603033,-65.85631491486576 -17.120446077350802,-65.85631491486576 -17.890257299098593,-65.85631491486576 -18.14686103968119,-65.85631491486576 -18.40346478026379,-65.85631491486576 -18.831137681234775,-65.85631491486576 -19.34434516239997,-65.85631491486576 -19.60094890298257,-65.77078033467158 -20.114156384147762,-65.77078033467158 -21.140571346478126,-65.68524575447738 -21.73931340783753,-65.68524575447738 -22.252520889002724,-65.59971117428317 -22.509124629585298,-65.59971117428317 -23.1078666909447,-65.51417659408898 -23.535539591915686,-65.51417659408898 -24.048747073080882,-65.42864201389477 -24.305350813663477,-65.42864201389477 -24.561954554246075,-65.42864201389477 -25.502834936382257,-65.3431074337006 -26.016042417547453,-65.25757285350639 -26.358180738324233,-65.25757285350639 -27.7267340214314,-65.17203827331218 -28.068872342208195,-65.08650369311799 -29.437425625315374,-65.00096911292378 -29.779563946092168,-65.00096911292378 -30.29277142725735,-64.91543453272958 -30.72044432822835,-64.8298999525354 -31.31918638958774,-64.65883079214699 -31.83239387075292,-64.48776163175859 -33.11541257366589,-64.14562331098182 -33.37201631424849,-64.06008873078761 -33.88522379541369,-63.9745541505934 -34.39843127657887,-63.80348499020501 -35.59591539929765,-63.46134666942823 -36.964468682404835,-63.03367376845722 -37.990883644735206,-62.69153544768044 -38.333021965512,-62.60600086748623 -38.67516028628879,-62.520466287292045 -39.35943692784238,-62.26386254670945 -39.787109828813364,-62.092793386321034 -40.89905937133795,-61.836189645738465 -41.925474333668326,-61.49405132496166 -42.26761265444512,-61.408516744767454 -42.609750975221914,-61.23744758437906 -44.49151173949428,-60.724240103213866 -44.74811548007687,-60.553170942825474 -45.09025380085367,-60.46763636263127 -46.116668763184045,-60.21103262204867 -46.54434166415504,-60.03996346166028 -46.97201456512603,-60.21103262204867 -46.88647998493183,-59.9544288814661 -47.399687466097014,-59.78335972107769 -47.74182578687381,-59.6978251408835 -48.16949868784481,-59.52675598049509 -49.024844489786794,-59.27015223991249 -49.28144823036938,-59.184617659718306 -50.222328612505564,-58.8424793389415 -50.99213983425336,-58.67141017855311 -51.41981273522434,-58.500341018164725 -51.93302021638954,-58.329271857776334 -52.702831438137316,-58.158202697387914 -53.21603891930251,-57.98713353699953 -53.643711820273495,-57.81606437661114 -54.24245388163289,-57.644995216222725 -54.75566136279808,-57.47392605583433 -55.01226510338067,-57.38839147564015 -55.43993800435167,-57.217322315251735 -56.038680065711056,-56.96071857466914 -56.55188754687624,-56.70411483408654 -57.06509502804143,-56.53304567369815 -57.32169876862403,-56.36197651330976 -57.66383708940082,-56.27644193311556 -58.77578663192539,-55.677699871756175 -59.46006327347898,-55.42109613117358 -59.80220159425577,-55.250026970785186 -60.144339915032575,-55.07895781039677 -60.48647823580937,-54.90788865000838 -60.914151136780355,-54.73681948962 -61.51289319813975,-54.39468116884319 -62.28270441988752,-54.05254284806641 -62.71037732085853,-53.881473687677996 -62.96698106144111,-53.710404527289604 -63.651257702994705,-53.453800786707006 -63.9933960237715,-53.282731626318615 -64.67767266532509,-52.94059330554184 -64.93427640590768,-52.85505872534763 -65.19088014649027,-52.68398956495924 -65.53301846726707,-52.51292040457083 -65.78962220784966,-52.42738582437664 -66.13176052862644,-52.25631666398823 -66.64496800979164,-51.99971292340565 -67.07264091076263,-51.82864376301724 -67.32924465134523,-51.743109182823055 -67.58584839192783,-51.65757460262885 -68.01352129289882,-51.40097086204625 -68.35565961367561,-51.229901701657866 -68.6122633542582,-51.14436712146365 -69.03993625522921,-50.97329796107527 -69.38207457600599,-50.802228800686876 -71.43490450066675,-49.775813838356484 -71.86257740163774,-49.6047446779681 -72.80345778377392,-49.17707177699711 -73.23113068474491,-49.0060026166087 -73.9154073262985,-48.663864295831914 -74.3430802272695,-48.407260555249316 -74.68521854804628,-48.32172597505511 -75.11289144901728,-48.06512223447251 -75.45502976979408,-47.89405307408412 -75.88270267076506,-47.63744933350152 -76.31037557173606,-47.295311012724746 -76.65251389251286,-47.12424185233633 -77.08018679348385,-46.867638111753735 -77.33679053406644,-46.78210353155955 -77.59339427464904,-46.61103437117116 -78.53427465678521,-46.09782689000597 -78.87641297756201,-45.92675772961755 -79.21855129833881,-45.67015398903498 -79.47515503892139,-45.499084828646566 -79.73175877950399,-45.328015668258175 -80.07389710028077,-45.15694650786978 -80.58710458144597,-44.81480818709298 -81.01477748241696,-44.55820444651038 -81.52798496358216,-44.216066125733605 -81.87012328435894,-43.95946238515101 -82.12672702494154,-43.8739278049568 -82.72546908630093,-43.44625490398581 -83.23867656746611,-43.10411658320903 -83.75188404863131,-42.76197826243222 -84.0084877892139,-42.676443682238016 -84.60722985057329,-42.16323620107285 -85.20597191193269,-41.821097880296044 -85.46257565251528,-41.65002871990765 -86.06131771387466,-41.30789039913085 -86.91666351581665,-40.709148337771474 -88.45628595931223,-39.76826795563529 -88.71288969989482,-39.597198795246875 -88.96949344047742,-39.42612963485848 -89.31163176125419,-39.169525894275885 -89.5682355018368,-38.998456733887494 -90.16697756319618,-38.65631841311072 -92.30534206805115,-37.20223054980934 -93.67389535115831,-36.34688474786734 -94.10156825212931,-36.090281007284744 -94.4437065729061,-35.91921184689635 -94.70031031348869,-35.74814268650796 -95.89779443620746,-34.89279688456599 -96.15439817679007,-34.721727724177576 -96.49653649756686,-34.550658563789185 -97.00974397873205,-34.2085202430124 -98.20722810145082,-33.438709021264614 -99.4902468043638,-32.49782863912843 -99.74685054494641,-32.32675947874004 -100.00345428552899,-32.155690318351624 -100.77326550727678,-31.55694825699225 -101.11540382805357,-31.38587909660386 -101.62861130921877,-31.043740775827054 -102.05628421018976,-30.70160245505025 -102.39842253096654,-30.444998714467676 -103.08269917252014,-29.93179123330248 -104.19464871504472,-29.16198001155469 -104.62232161601571,-28.81984169077791 -105.13552909718089,-28.477703370001105 -105.39213283776348,-28.306634209612714 -109.07011978611402,-25.65506222359256 -109.92546558805599,-25.05632016223318 -110.43867306922118,-24.714181841456377 -111.12294971077478,-24.20097436029118 -111.55062261174577,-23.944370619708586 -112.49150299388194,-23.174559397960817 -112.74810673446454,-23.003490237572404 -113.00471047504713,-22.832421077184012 -113.60345253640651,-22.404748176213026 -114.37326375815431,-21.806006114853624 -114.8864712393195,-21.378333213882637 -115.48521330067888,-20.77959115252326 -115.74181704126147,-20.52298741194066 -116.51162826300927,-19.667641609998686 -117.11037032436867,-19.068899548639283 -117.36697406495124,-18.726761227862504 -117.62357780553384,-18.55569206747409 -117.88018154611643,-18.21355374669731 -118.22231986689324,-17.871415425920507 -118.47892360747583,-17.61481168533791 -118.73552734805844,-17.35820794475531 -118.99213108864103,-17.101604204172737 -119.41980398961202,-16.673931303201726 -119.67640773019461,-16.41732756261913 -120.0185460509714,-15.98965466164814 -120.53175353213659,-15.476447180482946 -120.7883572727192,-15.219843439900375 -121.04496101330179,-14.963239699317777 -121.30156475388438,-14.706635958735179 -121.64370307466116,-14.364497637958374 -121.98584139543797,-13.936824736987386 -122.41351429640896,-13.5091518360164 -122.67011803699155,-13.167013515239594 -122.92672177757414,-12.995944354851204 -123.18332551815675,-12.739340614268608 -123.35439467854513,-12.48273687368601 -123.61099841912774,-12.226133133103414 -123.86760215971033,-11.883994812326634 -124.12420590029294,-11.541856491549828 -124.4663442210697,-11.199718170773048 -124.6374133814581,-10.943114430190452 -124.8940171220407,-10.686510689607854 -125.32169002301168,-10.17330320844266 -125.6638283437885,-9.83116488766588 -125.92043208437109,-9.489026566889073 -126.34810498534208,-8.975819085723879 -126.69024330611887,-8.548146184752893 -127.03238162689566,-8.120473283781905 -127.28898536747826,-7.7783349630051 -127.63112368825506,-7.43619664222832 -127.97326200903184,-7.008523741257333 -128.31540032980865,-6.666385420480528 -128.57200407039124,-6.324247099703748 -128.914142391168,-5.896574198732736 -129.08521155155643,-5.639970458150138 -129.42734987233322,-4.955693816596554 -129.5984190327216,-4.699090076013982 -129.76948819311002,-4.442486335431385 -130.02609193369258,-4.014813434460372 -130.2826956742752,-3.6726751136835922 -130.45376483466362,-3.3305367929067873 -130.71036857524618,-2.9028638919358 -131.05250689602298,-2.389656410770605 -131.22357605641136,-2.133052670188008 -131.3946452167998,-1.8764489296054356 -131.65124895738236,-1.4487760286344233 -131.90785269796496,-0.7644993870808386 -132.07892185835337,-0.5078956464982413 -132.16445643854755,0.17638099505534344 -132.16445643854755,0.6040538960263306 -132.24999101874175,0.860657636608928 -132.24999101874175,1.2883305375799152 -132.33552559893596,1.630468858356695 -132.33552559893596,1.8870725989392925 -132.33552559893596,2.14367633952189 -132.42106017913017,2.400280080104487 -132.42106017913017,2.913487561269682 -132.50659475932437,3.1700913018522794 -132.59212933951855,3.854367943405864 -132.67766391971276,4.453110004765241 -132.67766391971276,4.795248325542046 -132.67766391971276,5.222921226513034 -132.67766391971276,5.479524967095631 -132.67766391971276,5.821663287872435 -132.67766391971276,6.163801608649215 -132.67766391971276,7.275751151173787 -132.76319849990696,8.131096953115787 -132.76319849990696,8.387700693698385 -132.76319849990696,8.98644275505776 -132.76319849990696,10.012857717388151 -132.76319849990696,10.611599778747529 -132.76319849990696,11.210341840106931 -132.84873308010114,11.638014741077917 -132.84873308010114,11.894618481660515 -132.84873308010114,12.236756802437295 -132.84873308010114,12.74996428360249 -132.93426766029535,14.717259628069062 -133.01980224048955,17.197762453700804 -133.10533682068373,18.309711996225374 -133.19087140087794,21.13235314263392 -133.19087140087794,21.474491463410725 -133.10533682068373,21.90216436438171 -133.10533682068373,22.415371845546908 -132.93426766029535,23.09964848710049 -132.93426766029535,23.35625222768309 -132.84873308010114,23.954994289042467 -132.67766391971276,25.152478411761244 -132.59212933951855,25.751220473120622 -132.59212933951855,26.093358793897426 -132.42106017913017,27.205308336422 -132.33552559893596,27.718515817587196 -132.33552559893596,28.060654138364 -132.07892185835337,29.258138261082753 -132.07892185835337,29.51474200166535 -131.99338727815916,29.77134574224795 -131.99338727815916,30.027949482830547 -131.90785269796496,30.370087803607337 -131.82231811777078,31.054364445160935 -131.73678353757657,31.73864108671452 -131.5657143771882,32.251848567879705 -131.3946452167998,33.44933269059848 -131.3946452167998,33.70593643118108 -131.22357605641136,34.561282233123066 -130.5392994148578,38.495872922056186 -130.5392994148578,38.752476662638784 -130.197161094081,40.03549536555175 -130.02609193369258,40.80530658729953 -129.8550227733042,41.14744490807633 -129.68395361291581,42.08832529021251 -129.5984190327216,42.34492903079511 -128.74307323077963,45.59524307817464 -128.40093491000283,46.96379636128182 -128.22986574961445,47.56253842264121 -127.46005452786665,50.641783309632345 -127.37451994767247,50.89838705021494 -127.20345078728405,51.58266369176852 -126.34810498534208,54.23423567778868 -124.55187880126391,57.912222626139204 -123.09779093796254,61.419140414101335 -122.67011803699155,62.53108995662592 -122.41351429640896,63.0442974377911 -122.24244513602056,63.4719703387621 -121.81477223504957,64.49838530109247 -121.47263391427278,65.43926568322865 -120.1040806311656,67.57763018808362 -119.41980398961202,68.68957973060819 -115.99842078184408,72.8807741601239 -115.82735162145568,73.13737790070651 -115.1430749799021,73.99272370264849 -114.8864712393195,74.33486202342529 -114.6298674987369,74.59146576400788 -113.86005627698911,75.61788072633826 -113.43238337601812,76.21662278769764 -110.0110001682502,80.49335179740756 -108.55691230494882,82.20404340129153 -107.27389360203586,83.91473500517549 -107.01728986145326,84.17133874575809 -106.50408238028807,84.85561538731167 -106.24747863970548,85.19775370808847 -105.99087489912287,85.53989202886525 -105.56320199815188,85.96756492983626 -105.30659825756929,86.30970325061305 -104.4512524556273,87.25058363274924 -104.10911413485051,87.67825653372022 -103.85251039426791,87.93486027430282 -103.68144123387953,88.19146401488541 -103.33930291310271,88.53360233566221 -102.82609543193753,89.1323443970216 -102.48395711116075,89.47448271779838 -102.14181879038395,89.81662103857518 -101.88521504980136,90.07322477915778 -101.54307672902456,90.41536309993457 -101.02986924785937,90.92857058109975 -100.34559260630579,91.52731264245915 -99.83238512514059,92.04052012362433 -99.575781384558,92.29712386420692 -99.31917764397541,92.55372760478951 -98.8915047430044,92.98140050576052 -98.37829726183922,93.40907340673151 -98.12169352125663,93.7512117275083 -97.86508978067404,93.9222808878967 -97.43741687970304,94.3499537888677 -97.00974397873205,94.77762668983868 -95.89779443620746,95.80404165216906 -95.38458695504228,96.40278371352846 -94.6147757332945,97.08706035508204 -94.4437065729061,97.34366409566464 -91.87766916708014,99.82416692129638 -90.68018504436138,101.02165104401516 -88.96949344047742,102.64680806770492 -86.83112893562246,104.78517257255989 -85.20597191193269,106.41032959624965 -84.43616069018489,107.18014081799744 -81.44245038338796,110.08831654460018 -80.33050084086338,110.85812776634796 -79.90282793989239,111.11473150693057 -79.47515503892139,111.37133524751316 -74.3430802272695,114.79271845528109 -73.57326900552171,115.30592593644629 -64.76320724551928,121.03674280945758 -64.24999976435409,121.29334655004018 -62.71037732085853,122.31976151237055 -61.85503151891654,122.83296899353574 -61.51289319813975,123.08957273411833 -60.48647823580937,123.60278021528353 -56.29528380629364,125.48454097955589 -55.95314548551685,125.65561013994429 -55.61100716474006,125.82667930033267 -55.35440342415746,125.91221388052688 -54.75566136279808,126.16881762110948 -54.49905762221549,126.33988678149787 -53.8147809806619,126.59649052208046 -53.47264265988511,126.76755968246886 -53.130504339108306,126.93862884285724 -52.873900598525715,127.02416342305145 -52.617296857943124,127.19523258343985 -52.18962395697212,127.36630174382826 -51.93302021638954,127.53737090421664 -51.590881895612746,127.62290548441084 -50.906605254059144,127.96504380518763 -50.30786319269977,128.22164754577022 -49.965724871922966,128.3927167061586 -49.623586551146175,128.56378586654702 -49.11037906998099,128.8203896071296 -48.5971715888158,129.0769933477122 -47.99842952745641,129.3335970882948 -47.65629120667961,129.50466624868318 -47.31415288590282,129.5902008288774 -46.116668763184045,130.1889428902368 -45.77453044240725,130.27447747043098 -45.261322961242065,130.3600120506252 -44.577046319688485,130.44554663081936 -44.06383883852329,130.53108121101357 -43.80723509794069,130.61661579120778 -42.78082013561031,130.7876849515962 -42.26761265444512,130.8732195317904 -41.07012853172634,131.04428869217878 -40.55692105056116,131.129823272373 -40.30031730997856,131.21535785256717 -39.27390234764818,131.38642701295555 -39.017298607065584,131.47196159314976 -38.760694866482986,131.47196159314976 -38.50409112590039,131.55749617334396 -37.905349064541,131.64303075353814 -36.87893410221062,131.81409991392658 -36.53679578143383,131.89963449412076 -35.51038081910345,132.07070365450917 -35.253777078520855,132.15623823470335 -34.82610417754987,132.24177281489756 -34.22736211619048,132.32730739509174 -33.88522379541369,132.41284197528594 -33.5430854746369,132.41284197528594 -32.94434341327751,132.41284197528594 -32.51667051230652,132.41284197528594 -32.26006677172392,132.49837655548015 -32.00346303114132,132.49837655548015 -31.575790130170336,132.49837655548015 -30.378306007451556,132.32730739509174 -30.036167686674766,132.24177281489756 -29.608494785703765,132.15623823470335 -29.095287304538584,132.07070365450917 -28.838683563955986,132.07070365450917 -28.582079823373387,131.98516907431497 -28.239941502596597,131.89963449412076 -27.812268601625608,131.89963449412076 -27.470130280848803,131.81409991392658 -27.213526540266205,131.81409991392658 -26.78585363929522,131.72856533373235 -26.358180738324233,131.64303075353814 -26.101576997741635,131.64303075353814 -25.67390409677065,131.55749617334396 -25.41730035618805,131.38642701295555 -25.07516203541127,131.30089243276137 -24.647489134440256,131.129823272373 -24.390885393857662,130.95875411198458 -23.45000501172148,130.61661579120778 -22.851262950362102,130.27447747043098 -22.509124629585298,130.1889428902368 -22.252520889002724,130.1034083100426 -21.995917148420126,129.9323391496542 -21.73931340783753,129.84680456946 -21.397175087060724,129.7612699892658 -21.140571346478126,129.5902008288774 -20.88396760589553,129.50466624868318 -20.45629470492454,129.3335970882948 -20.114156384147762,129.1625279279064 -19.60094890298257,128.99145876751803 -19.34434516239997,128.8203896071296 -18.40346478026379,128.47825128635282 -17.291515237739215,128.05057838538184 -16.94937691696241,127.87950922499343 -16.60723859618563,127.79397464479925 -16.265100275408827,127.62290548441084 -16.00849653482623,127.53737090421664 -15.751892794243632,127.45183632402244 -15.153150732884255,127.19523258343985 -14.554408671524852,126.93862884285724 -14.29780493094228,126.85309426266306 -13.870132029971268,126.68202510227465 -13.44245912900028,126.51095594188625 -12.843717067640904,126.25435220130366 -12.501578746864098,126.16881762110948 -12.244975006281502,126.08328304091528 -11.988371265698904,125.91221388052688 -11.389629204339528,125.74114472013846 -11.047490883562721,125.57007555975008 -10.79088714298015,125.48454097955589 -10.448748822203346,125.31347181916748 -10.192145081620748,125.31347181916748 -9.93554134103815,125.2279372389733 -9.507868440067163,125.14240265877909 -9.080195539096175,125.05686807858488 -8.823591798513577,124.97133349839069 -8.566988057930981,124.97133349839069 -8.310384317348383,124.88579891819649 -8.053780576765787,124.80026433800228 -7.797176836183189,124.80026433800228 -7.540573095600592,124.7147297578081 -7.112900194629604,124.6291951776139 -6.685227293658617,124.54366059741972 -6.42862355307602,124.45812601722551 -5.915416071910824,124.37259143703129 -5.658812331328227,124.28705685683711 -5.402208590745655,124.28705685683711 -4.974535689774642,124.37259143703129 -4.717931949192045,124.37259143703129 -4.461328208609473,124.45812601722551 -4.119189887832668,124.54366059741972 -3.520447826473291,124.7147297578081 -3.2638440858906934,124.80026433800228 -2.9217057651138885,124.80026433800228 -2.579567444337109,124.88579891819649 -2.237429123560304,125.05686807858488 -1.8952908027835242,125.05686807858488 -1.6386870622009269,125.14240265877909 -1.296548741424122,125.2279372389733 -0.9544104206473423,125.31347181916748 -0.5267375196763299,125.39900639936168 -0.2701337790937325,125.48454097955589 0.1575391218772548,125.57007555975008 0.41414286245985216,125.65561013994429 0.9273503436250218,125.74114472013846 1.1839540842076193,125.82667930033267 1.526092404984424,125.91221388052688 1.9537653059554114,125.99774846072106 2.2103690465380086,126.08328304091528 2.638041947508996,126.16881762110948 2.894645688091593,126.25435220130366 3.1512494286741908,126.33988678149787 3.407853169256788,126.33988678149787 3.749991490033568,126.42542136169207 4.006595230616165,126.51095594188625 4.434268131587152,126.59649052208046 4.69087187216975,126.68202510227465 5.033010192946555,126.76755968246886 5.289613933529152,126.85309426266306 5.6317522543059315,126.93862884285724 5.88835599488853,126.93862884285724 6.144959735471127,127.02416342305145 6.401563476053724,127.10969800324565 6.743701796830529,127.10969800324565 7.0003055374131264,127.19523258343985 7.256909277995699,127.28076716363405 7.513513018578296,127.36630174382826 7.770116759160893,127.45183632402244 8.02672049974349,127.45183632402244 8.283324240326088,127.53737090421664 8.882066301685466,127.70844006460504 9.309739202656477,127.79397464479925 9.566342943239075,127.87950922499343 9.994015844210063,127.96504380518763 10.421688745181049,128.05057838538184 10.763827065957829,128.13611296557602 11.020430806540427,128.22164754577022 11.362569127317231,128.30718212596443 11.61917286789983,128.3927167061586 12.046845768870817,128.47825128635282 12.303449509453413,128.56378586654702 12.645587830230193,128.64932044674123 13.073260731201206,128.73485502693543 13.329864471783779,128.8203896071296 13.75753737275479,128.90592418732382 14.014141113337388,128.99145876751803 14.27074485391996,129.0769933477122 14.698417754890972,129.1625279279064 14.95502149547357,129.24806250810062 15.211625236056141,129.3335970882948 15.639298137027154,129.419131668489 15.895901877609752,129.50466624868318 16.152505618192325,129.50466624868318 16.49464393896913,129.5902008288774 16.751247679551728,129.67573540907162 17.093386000328508,129.7612699892658 17.8631972220763,129.9323391496542 18.547473863629882,130.1034083100426 18.80407760421248,130.1889428902368 19.06068134479508,130.27447747043098 19.659423406154456,130.44554663081936 19.91602714673705,130.53108121101357 20.25816546751386,130.53108121101357 20.60030378829064,130.70215037140198 21.02797668926165,130.7876849515962 21.455649590232635,130.8732195317904 21.883322491203625,130.95875411198458 22.31099539217461,131.04428869217878 22.56759913275721,131.129823272373 22.824202873339807,131.21535785256717 23.42294493469918,131.30089243276137 25.04810195838895,131.64303075353814 25.817913180136742,131.98516907431497 26.502189821690326,131.98516907431497 26.84432814246713,132.07070365450917 39.93111891217947,135.57762144247127 39.76004975179108,135.06441396130612 29.23929638790469,132.32730739509174 29.58143470868147,132.41284197528594 29.83803844926407,132.41284197528594 30.265711350235055,132.49837655548015 30.69338425120604,132.49837655548015 30.94998799178864,132.49837655548015 31.377660892759625,132.58391113567433 31.719799213536433,132.58391113567433 32.06193753431321,132.66944571586853 32.91728333625521,132.75498029606274 33.858163718391395,132.84051487625695 34.371371199556584,132.92604945645115 35.48332074208116,133.01158403664533 36.082062803440536,133.09711861683954 36.766339444994124,133.18265319703374 37.10847776577093,133.18265319703374 38.2204273082955,133.35372235742213 38.477031048878096,133.35372235742213 38.8191693696549,133.35372235742213 39.33237685082007,133.43925693761634 39.93111891217947,133.5247915178105 40.18772265276207,133.5247915178105 40.61539555373306,133.61032609800472 41.98394883684023,133.7813952583931 42.240552577422825,133.7813952583931 42.8392946387822,133.8669298385873 43.4380367001416,133.8669298385873 43.780175020918385,133.95246441878152 44.03677876150098,133.95246441878152 44.37891708227779,133.95246441878152 44.80658998324877,134.03799899897572 45.148728304025575,134.12353357916993 45.83300494557916,134.12353357916993 46.43174700693854,134.2090681593641 47.287092808880516,134.29460273955831 47.800300290045705,134.38013731975252 48.227973191016694,134.38013731975252 48.5701115117935,134.4656718999467 48.8267152523761,134.4656718999467 49.083318992958695,134.4656718999467 49.93866479490067,134.63674106033508 51.307218078007836,134.7222756405293 51.90596013936724,134.8078102207235 52.162563879949836,134.8078102207235 52.50470220072662,134.89334480091767 52.76130594130922,134.89334480091767 53.10344426208602,134.9788793811119 54.64306670558158,135.1499485415003 55.32734334713516,135.2354831216945 55.75501624810615,135.2354831216945 56.86696579063075,135.1499485415003 57.55124243218433,135.1499485415003 66.61790793276936,134.29460273955831 82.01413236772504,132.84051487625695 85.77765389626977,132.49837655548015 86.11979221704655,132.49837655548015 86.46193053782338,132.49837655548015 90.6531249673391,131.38642701295555 93.64683527413601,130.61661579120778 99.8908596283125,128.47825128635282 100.4896016896719,128.05057838538184 103.31224283608044,125.91221388052688 103.9109848974398,125.39900639936168 105.19400360035281,124.11598769644873 105.6216765013238,123.68831479547771 107.76004100617874,120.86567364906917 108.01664474676136,120.69460448868078 108.27324848734393,120.26693158770979 108.44431764773235,120.01032784712719 110.7537513129757,116.84554837994185 111.01035505355827,116.50341005916506 111.60909711491767,114.7071838750869 111.86570085550024,114.1084418137275 111.95123543569446,113.8518380731449 112.12230459608287,113.25309601178553 112.29337375647123,112.73988853062033 112.37890833666543,112.39775020984354 112.63551207724807,111.97007730887253 112.63551207724807,111.62793898809576 112.80658123763642,111.28580066731895 113.49085787919003,109.4040399030466 113.57639245938424,109.06190158226981 113.74746161977261,108.46315952091041 113.91853078016102,108.20655578032782 114.00406536035523,107.86441745955103 114.2606691009378,107.26567539819165 114.34620368113201,107.00907165760904 114.773876582103,105.72605295469607 114.94494574249141,105.29838005372508 115.20154948307399,104.6141034121715 115.3726186434624,104.1864305112005 115.45815322365661,103.8442921904237 115.62922238404497,103.50215386964692 115.80029154443339,103.07448096867591 115.8858261246276,102.81787722809332 115.9713607048218,102.47573890731654 116.65563734637536,100.67951272323836 116.74117192656956,100.33737440246158 116.99777566715214,99.73863234110219 117.08331024734635,99.4820286005196 117.42544856812313,98.6266827985776 117.51098314831734,98.28454447780082 117.68205230870575,97.68580241644142 " 
stroke="crimson" 
stroke-width="1" 
fill="none"
id="line0" />

</g>
</g>
<g
inkscape:label="Slice 2"
inkscape:groupmode="layer" 
id="layer2" 
><g
id="g372">
  <polyline points="-5.573277751134045,94.0933500482851 -5.487743170939837,94.3499537888677 -5.145604850163058,94.86316127003288 -4.889001109580461,95.29083417100388 -4.632397368997863,95.80404165216906 -4.461328208609473,96.06064539275165 -4.204724468026876,96.48831829372266 -4.119189887832668,96.74492203430523 -3.9481207274442784,97.00152577488784 -3.691516986861681,97.34366409566464 -3.520447826473291,97.60026783624724 -3.349378666084876,98.02794073721823 -3.0072403453080963,98.6266827985776 -2.836171184919681,98.9688211193544 -2.6651020245312913,99.22542485993701 -2.066359963171914,99.90970150149059 -1.8952908027835242,100.16630524207318 -1.6386870622009269,100.42290898265577 -1.0399450008415245,101.44932394498615 -0.9544104206473423,101.70592768556874 -0.6122720998705373,102.21913516673393 -0.4412029394821475,102.56127348751073 -0.0990646187053426,103.16001554887012 0.1575391218772548,103.58768844984111 0.32860828226564465,103.8442921904237 0.4996774426540345,104.1864305112005 0.756281183236632,104.69963799236568 1.0984195040134368,105.29838005372508 1.4405578247902167,105.55498379430767 1.697161565372814,105.64051837450187 2.1248344663438012,105.81158753489026 2.5525073673148135,105.89712211508446 4.17766439100458,106.41032959624965 4.434268131587152,106.49586417644386 4.69087187216975,106.58139875663804 5.118544773140762,106.75246791702645 5.460683093917542,106.83800249722064 5.973890575082737,107.00907165760904 6.572632636442114,107.18014081799744 7.513513018578296,107.52227913877422 8.368858820520297,107.77888287935683 8.625462561102893,107.86441745955103 9.138670042268062,108.03548661993942 9.822946683821648,108.20655578032782 10.934896226346245,108.20655578032782 11.362569127317231,108.03548661993942 12.816656990618608,107.43674455858005 13.415399051977985,107.18014081799744 13.672002792560583,106.75246791702645 14.014141113337388,106.23926043586127 14.441814014308376,105.64051837450187 14.698417754890972,105.29838005372508 14.869486915279362,104.95624173294827 15.211625236056141,104.44303425178309 15.382694396444558,104.1864305112005 15.895901877609752,103.50215386964692 16.152505618192325,103.3310847092585 16.40910935877492,103.3310847092585 16.665713099357518,103.24555012906431 16.922316839940116,103.16001554887012 17.178920580522714,103.07448096867591 17.6065934814937,102.90341180828753 18.03426638246469,102.64680806770492 18.376404703241494,102.56127348751073 18.80407760421248,102.30466974692814 19.317285085377677,102.13360058653973 19.488354245766065,101.87699684595715 19.744957986348663,101.44932394498615 19.91602714673705,101.19272020440356 20.60030378829064,100.16630524207318 21.02797668926165,99.4820286005196 21.54118417042682,98.71221737877181 21.797787911009415,98.37007905799501 21.96885707139783,98.11347531741242 22.13992623178622,97.77133699663563 22.225460811980405,96.65938745411106 22.31099539217461,96.23171455314005 22.31099539217461,95.80404165216906 22.396529972368818,95.46190333139228 22.396529972368818,95.03423043042129 22.396529972368818,94.77762668983868 22.482064552563,94.2644192086735 22.482064552563,93.9222808878967 22.482064552563,93.6656771473141 22.31099539217461,93.32353882653732 22.13992623178622,92.98140050576052 21.883322491203625,92.38265844440113 21.54118417042682,91.01410516129397 21.54118417042682,90.75750142071136 21.455649590232635,90.50089768012877 21.37011501003843,90.24429393954617 20.942442109067443,90.07322477915778 20.514769208096453,89.90215561876938 20.25816546751386,89.73108645838097 19.659423406154456,89.47448271779838 19.146215924989285,89.21787897721579 18.63300844382409,88.9612752366332 18.376404703241494,88.7902060762448 18.119800962658896,88.70467149605061 18.290870123047284,88.1059294346912 18.205335542853103,87.84932569410861 18.03426638246469,87.50718737333183 17.77766264188209,87.42165279313762 17.52105890129952,87.25058363274924 17.178920580522714,87.07951447236083 16.40910935877492,86.73737615158404 16.06697103799814,86.48077241100144 15.981436457803934,86.73737615158404 15.724832717221338,86.65184157138984 15.724832717221338,86.39523783080725 15.639298137027154,86.05309951003045 15.553763556832948,85.71096118925367 15.29715981625035,85.53989202886525 14.869486915279362,85.36882286847687 13.586468212366375,84.77008080711748 13.073260731201206,84.42794248634068 12.816656990618608,84.34240790614649 12.560053250036011,84.17133874575809 12.303449509453413,84.0002695853697 11.61917286789983,83.6581312645929 11.362569127317231,83.5725966843987 11.105965386734635,83.4015275240103 10.849361646152037,83.3159929438161 10.336154164986842,82.97385462303932 10.079550424404244,82.88832004284512 9.822946683821648,82.71725088245671 8.539927980908686,82.03297424090313 8.112255079937698,81.77637050032054 7.684582178966711,81.51976675973795 7.256909277995699,81.34869759934955 7.0003055374131264,81.17762843896115 6.743701796830529,81.00655927857275 6.230494315665334,80.74995553799016 5.88835599488853,80.57888637760176 5.2040793533349445,80.66442095779595 4.947475612752347,80.66442095779595 4.69087187216975,80.83549011818437 4.17766439100458,81.34869759934955 3.9210606504219827,81.60530133993214 3.6644569098393855,81.86190508051475 3.3223185890625806,82.20404340129153 2.980180268285801,82.54618172206833 2.1248344663438012,83.3159929438161 1.8682307257612039,83.3159929438161 1.3550232445960342,83.3159929438161 1.0984195040134368,83.5725966843987 0.9273503436250218,83.8292004249813 0.41414286245985216,84.34240790614649 -0.0990646187053426,84.77008080711748 -0.2701337790937325,85.02668454770007 -0.6122720998705373,85.36882286847687 -0.9544104206473423,85.71096118925367 -1.296548741424122,85.96756492983626 -1.5531524820067193,86.22416867041885 -1.9808253829777067,86.65184157138984 -2.237429123560304,86.82291073177825 -2.4940328641429015,87.16504905255503 -2.7506366047254986,87.59272195352602 -3.0072403453080963,88.02039485449701 -3.2638440858906934,88.44806775546802 -3.520447826473291,88.70467149605061 -3.7770515670558633,89.1323443970216 -3.9481207274442784,89.47448271779838 -4.290259048221058,89.90215561876938 -4.461328208609473,90.24429393954617 -4.632397368997863,90.50089768012877 -4.803466529386252,90.75750142071136 -4.974535689774642,91.01410516129397 -5.23113943035724,91.35624348207074 -5.316674010551448,91.61284722265334 -5.487743170939837,91.86945096323593 -5.487743170939837,92.21158928401275 -5.487743170939837,92.55372760478951 -5.573277751134045,92.89586592556633 -5.573277751134045,93.15246966614892 -5.573277751134045,94.0933500482851 " 
stroke="gray" 
stroke-width="1" 
fill="none"
id="line1" />

</g>
</g>
<g
inkscape:label="Slice 3"
inkscape:groupmode="layer" 
id="layer3" 
></g>
</svg>