<?xml version="1.0" encoding="UTF-8" ?>
<svg    xmlns:dc="http://purl.org/dc/elements/1.1/" xmlns:cc="http://creativecommons.org/ns#" xmlns:rdf="http://www.w3.org/1999/02/22-rdf-syntax-ns#" xmlns:svg="http://www.w3.org/2000/svg" xmlns="http://www.w3.org/2000/svg" xmlns:sodipodi="http://sodipodi.sourceforge.net/DTD/sodipodi-0.dtd" xmlns:inkscape="http://www.inkscape.org/namespaces/inkscape" version="1.1"
 viewBox="0 0 100.0 100.0"
 id="svg2" 
 width="28.222222912098783mm"
 height="28.222222912098783mm">
 <defs  
  id="defs4" /> 
 <sodipodi:namedview 
  id="base" 
  pagecolor="#ffffff" 
  bordercolor="#666666" 
  borderopacity="1.0" 
 inkscape:pageopacity="0.0" 
 inkscape:pageshadow="2" 
  inkscape:document-units="mm" 
  inkscape:current-layer="layer1" 
 showgrid="false" 
  />
<g
inkscape:label="Slice 1"
inkscape:groupmode="layer" 
id="layer1" 
><g
id="g371">
  <polyline points="117.68205230870575,197.68580241644142 117.68205230870575,197.42919867585883 117.85312146909416,197.00152577488785 118.02419062948253,196.40278371352846 118.36632895025932,194.1788846284793 118.45186353045352,193.7512117275083 118.96507101161872,189.21787897721578 119.05060559181292,188.875740656439 119.05060559181292,188.448067755468 119.13614017200713,188.1914640148854 119.13614017200713,187.67825653372023 119.22167475220134,187.16504905255505 119.30720933239549,186.73737615158404 119.30720933239549,186.30970325061304 119.3927439125897,185.62542660905947 119.4782784927839,185.11221912789426 119.73488223336653,182.80278546265092 119.9914859739491,181.00655927857275 120.16255513433752,179.12479851430038 120.50469345511429,176.13108820750347 120.5902280353085,175.78894988672664 120.76129719569687,173.8216545422601 120.93236635608528,172.79523957992973 120.93236635608528,172.4531012591529 120.93236635608528,172.11096293837613 121.01790093627949,171.85435919779354 121.01790093627949,171.42668629682254 121.01790093627949,170.82794423546315 120.93236635608528,170.57134049488056 120.93236635608528,169.97259843352117 120.84683177589108,169.54492553255017 120.84683177589108,169.28832179196758 120.76129719569687,168.2619068296372 120.6757626155027,167.91976850886041 120.6757626155027,167.32102644750103 120.6757626155027,166.97888812672423 120.5902280353085,166.72228438614164 120.5902280353085,165.78140400400545 120.5902280353085,165.18266194264606 120.50469345511429,164.58391988128668 120.50469345511429,164.1562469803157 120.50469345511429,163.81410865953887 120.41915887492009,163.0442974377911 120.41915887492009,162.18895163584912 120.33362429472588,160.90593293293614 120.33362429472588,160.30719087157675 120.33362429472588,159.70844881021736 120.33362429472588,159.45184506963477 120.24808971453167,157.6556188855566 120.16255513433752,157.3134805647798 120.16255513433752,156.971342244003 120.16255513433752,156.37260018264362 120.16255513433752,155.94492728167265 120.16255513433752,155.60278896089585 120.0770205541433,154.2342356777887 119.9914859739491,153.72102819662348 119.9914859739491,153.2933552956525 119.9914859739491,152.7801478144873 119.9914859739491,152.5235440739047 119.9914859739491,152.01033659273952 119.9914859739491,151.75373285215693 119.9914859739491,151.49712911157434 119.90595139375489,151.15499079079754 119.90595139375489,150.64178330963233 119.90595139375489,150.04304124827297 119.90595139375489,149.70090292749614 119.82041681356068,149.35876460671938 119.82041681356068,148.5889533849716 119.82041681356068,148.1612804840006 119.82041681356068,147.8191421632238 119.82041681356068,147.5625384226412 119.73488223336653,147.049330941476 119.73488223336653,146.62165804050503 119.73488223336653,146.36505429992243 119.73488223336653,146.02291597914564 119.64934765317233,145.76631223856305 119.56381307297812,145.25310475739786 119.4782784927839,144.99650101681527 119.4782784927839,144.65436269603848 119.3927439125897,144.22668979506747 119.22167475220134,143.1147402525429 119.13614017200713,142.6870673515719 119.05060559181292,142.4304636109893 119.05060559181292,142.17385987040672 118.96507101161872,141.83172154962992 118.8795364314245,141.40404864865891 118.8795364314245,141.06191032788212 118.79400185123035,140.80530658729953 118.79400185123035,140.46316826652276 118.62293269084194,140.03549536555175 118.62293269084194,139.69335704477496 118.53739811064773,139.35121872399816 118.53739811064773,139.09461498341557 118.45186353045352,138.7524766626388 118.36632895025932,138.49587292205618 118.36632895025932,138.15373460127938 118.28079437006515,137.8115962805026 118.19525978987095,137.3839233795316 118.10972520967674,137.12731963894902 118.10972520967674,136.87071589836643 117.93865604928833,135.92983551623024 117.93865604928833,135.58769719545344 117.85312146909416,135.33109345487085 117.76758688889996,134.90342055389985 117.76758688889996,134.64681681331726 117.68205230870575,134.21914391234628 117.59651772851154,133.70593643118107 117.51098314831734,133.36379811040428 117.42544856812313,133.0216597896275 117.42544856812313,132.7650560490449 117.33991398792897,132.3373831480739 117.25437940773476,131.73864108671452 117.16884482754055,131.31096818574352 117.08331024734635,130.88329528477254 116.99777566715214,130.11348406302474 116.91224108695798,129.77134574224795 116.91224108695798,129.51474200166535 116.82670650676377,129.17260368088859 116.74117192656956,128.74493077991758 116.65563734637536,128.488327039335 116.57010276618115,128.2317232987524 116.484568185987,127.88958497797559 116.31349902559859,127.5474466571988 116.22796444540437,127.11977375622781 116.14242986521016,126.77763543545102 115.8858261246276,126.09335879389742 115.71475696423919,125.40908215234384 115.62922238404497,125.15247841176125 115.45815322365661,124.81034009098444 115.3726186434624,124.38266719001345 115.20154948307399,124.04052886923668 114.773876582103,122.6719755861295 114.60280742171463,122.15876810496431 114.34620368113201,121.38895688321652 113.57639245938424,119.16505779816737 113.14871955841326,117.79650451506018 112.63551207724807,116.25688207156462 112.46444291685964,115.82920917059363 112.46444291685964,115.31600168942843 112.20783917627708,114.97386336865164 112.12230459608287,114.63172504787485 111.95123543569446,114.28958672709805 111.60909711491767,113.51977550535028 111.01035505355827,112.40782596282568 110.2405438318105,110.44053061835913 110.06947467142209,110.09839229758234 109.2141288694801,108.38770069369838 109.1285942892859,108.13109695311579 108.70092138831492,107.1902165709796 108.6153868081207,106.93361283039701 108.44431764773235,106.50593992942602 107.93111016656715,105.47952496709563 107.76004100617874,105.13738664631883 107.50343726559616,104.62417916515366 107.16129894481934,103.85436794340586 106.73362604384835,102.91348756126968 106.56255688345998,102.57134924049288 106.30595314287736,101.9726071791335 105.79274566171216,100.86065763660893 105.6216765013238,100.60405389602633 105.5361419211296,100.34745015544374 105.45060734093538,100.09084641486113 105.27953818054696,99.83424267427854 104.85186527957597,98.72229313175397 104.59526153899341,98.29462023078298 104.25312321821663,97.6103435892294 104.08205405782822,97.18267068825838 103.99651947763401,96.9260669476758 103.73991573705143,96.4983940467048 102.45689703413842,93.76128748049047 102.02922413316743,92.73487251816007 101.77262039258487,92.4782687775775 101.77262039258487,92.2216650369949 101.43048207180809,91.79399213602389 101.08834375103126,91.19525007466451 100.91727459064289,90.93864633408191 100.74620543025448,90.59650801330514 100.31853252928349,89.99776595194572 98.35123718481691,87.26065938573139 98.2657026046227,87.0040556451488 97.7524951234575,86.31977900359522 96.89714932151554,85.12229488087644 95.78519977899099,83.49713785718666 94.074508175107,81.0166350315549 93.73236985433022,80.50342755038973 93.13362779297081,79.64808174844774 91.50847076928108,77.2531135030102 88.9424333634551,73.48959197446547 88.17262214170732,72.46317701213508 88.00155298131891,72.12103869135828 87.65941466054214,71.7789003705815 87.31727633976536,71.43676204980468 86.71853427840595,70.83801998844531 86.29086137743496,70.41034708747432 84.58016977355099,68.87072464397875 84.15249687258,68.52858632320196 83.89589313199741,68.27198258261936 83.46822023102642,67.92984426184256 82.18520152811342,66.81789471931799 81.75752862714245,66.47575639854121 81.50092488655984,66.2191526579586 80.04683702325849,65.107203115434 76.53991923529637,62.19902738883128 74.48708931063558,60.57387036514152 74.23048557005299,60.48833578494731 73.5462089284994,60.14619746417053 71.23677526325605,59.03424792164593 70.72356778209085,58.863178761257544 70.03929114053727,58.52104044048076 69.78268739995467,58.435505860286554 68.4141341168475,57.751229218732966 67.98646121587652,57.58016005834458 67.64432289509973,57.40909089795616 66.70344251296356,56.98141799698518 66.44683877238096,56.89588341679097 66.10470045160416,56.72481425640258 65.84809671102155,56.639279676208396 65.59149297043896,56.55374509601419 65.33488922985636,56.3826759356258 64.99275090907958,56.29714135543159 64.73614716849698,56.211606775237385 64.308474267526,56.04053761484899 63.53866304577821,55.69839929407222 63.28205930519561,55.61286471387801 62.255644342865246,55.18519181290702 61.99904060228265,55.01412265251863 61.05816022014646,54.671984331741825 60.801556479563864,54.500915171353434 59.94621067762187,54.15877685057663 59.689606937039294,54.07324227038245 57.636777012378516,53.21789646844045 56.86696579063075,52.87575814766367 56.61036205004815,52.79022356746946 56.353758309465555,52.61915440708107 56.09715456888296,52.53361982688686 55.32734334713516,52.19148150611009 53.10344426208602,51.165066543779695 52.590236780920826,50.9084628031971 52.33363304033823,50.82292822300289 51.82042555917303,50.56632448242032 51.22168349781366,50.30972074183772 50.79401059684267,50.053117001255124 49.85313021470649,49.625444100284135 49.510991893929685,49.45437493989572 49.25438815334709,49.36884035970154 48.48457693159929,49.02670203892473 47.287092808880516,48.42795997756536 46.859419907909526,48.256890817176945 46.004074105967554,47.829217916205955 44.54998624266617,47.05940669445816 44.207847921889396,46.88833753406977 43.9512441813068,46.80280295387559 43.4380367001416,46.546199213292994 42.58269089819963,46.289595472710396 42.240552577422825,46.0329917321278 41.385206775480846,45.69085341135099 40.78646471412144,45.434249670768395 40.10218807256786,45.177645930185825 39.76004975179108,45.09211134999162 38.733634789460694,44.749973029214814 37.7072198271303,44.322300128243825 37.194012345965135,44.15123096785543 36.766339444994124,44.06569638766123 36.338666544023134,43.894627227272835 36.082062803440536,43.80909264707863 35.82545906285794,43.80909264707863 34.970113260915966,43.55248890649603 34.45690577975077,43.38141974610764 34.02923287877978,43.29588516591346 33.6015599778088,43.210350585719254 33.17388707683781,43.12481600552505 32.91728333625521,43.03928142533086 32.48961043528422,42.86821226494245 31.976402954119028,42.782677684748265 31.206591732371237,42.52607394416567 30.436780510623443,42.355004783777275 29.923573029458275,42.26947020358307 29.49590012848726,42.09840104319468 29.23929638790469,42.09840104319468 28.982692647322093,42.01286646300047 28.726088906739495,41.927331882806264 28.127346845380092,41.75626272241787 27.870743104797494,41.75626272241787 27.6141393642149,41.670728142223666 27.357535623632327,41.58519356202949 27.10093188304973,41.499658981835275 26.84432814246713,41.499658981835275 26.502189821690326,41.4141244016411 26.07451692071934,41.32858982144689 25.475774859359962,41.1575206610585 25.133636538583158,41.07198608086429 24.449359897029574,40.9009169204759 24.10722157625277,40.815382340281694 23.76508325547599,40.72984776008751 23.337410354505,40.6443131798933 23.0808066139224,40.558778599699096 22.653133712951416,40.47324401950491 21.626718750621027,40.21664027892231 21.37011501003843,40.131105698728106 20.942442109067443,40.0455711185339 20.514769208096453,39.96003653833972 20.00156172693126,39.78896737795133 19.488354245766065,39.703432797757124 19.231750505183467,39.61789821756292 18.80407760421248,39.53236363736873 18.4619392834357,39.446829057174526 18.119800962658896,39.36129447698032 17.8631972220763,39.275759896786134 17.6065934814937,39.19022531659193 17.178920580522714,39.10469073639772 16.49464393896913,38.93362157600933 16.152505618192325,38.848086995815144 15.382694396444558,38.67701783542673 15.040556075667752,38.591483255232546 14.783952335085155,38.591483255232546 14.356279434114168,38.50594867503834 13.158795311395387,38.24934493445574 12.902191570812791,38.24934493445574 12.560053250036011,38.163810354261535 12.217914929259207,38.07827577406736 11.70470744809401,37.992741193873144 11.277034547123025,37.907206613678966 11.020430806540427,37.907206613678966 10.336154164986842,37.73613745329055 9.994015844210063,37.73613745329055 9.39527378285066,37.65060287309637 9.138670042268062,37.56506829290216 8.796531721491283,37.56506829290216 8.112255079937698,37.39399913251377 7.855651339355101,37.39399913251377 7.427978438384113,37.30846455231956 7.085840117607309,37.30846455231956 6.829236377024712,37.22292997212536 6.401563476053724,37.22292997212536 6.059425155276944,37.13739539193117 5.54621767411175,37.051860811736965 5.289613933529152,37.051860811736965 4.69087187216975,36.96632623154278 4.263198971198762,36.880791651348574 4.006595230616165,36.79525707115437 2.638041947508996,36.624187910765976 1.2694886644018266,36.45311875037759 0.756281183236632,36.36758417018338 0.1575391218772548,36.2820495899892 -0.4412029394821475,36.19651500979499 -1.125479581035732,36.11098042960079 -1.3820833216183295,36.11098042960079 -2.3229637037545117,35.93991126921239 -3.0927749255022787,35.85437668901818 -4.033655307638461,35.6833075286298 -6.770761873852824,35.25563462765881 -7.797176836183189,35.1701000474646 -8.310384317348383,35.08456546727042 -8.566988057930981,35.08456546727042 -8.823591798513577,34.999030887076216 -11.13302546375693,34.656892566299405 -11.560698364727918,34.57135798610523 -11.817302105310514,34.57135798610523 -12.159440426087318,34.48582340591102 -12.416044166669916,34.48582340591102 -13.1003208082235,34.40028882571683 -13.61352828938867,34.31475424552262 -14.126735770553866,34.229219665328415 -14.46887409133067,34.229219665328415 -15.238685313078463,34.05815050494003 -16.350634855603033,34.14368508513424 -17.120446077350802,34.14368508513424 -17.890257299098593,34.14368508513424 -18.14686103968119,34.14368508513424 -18.40346478026379,34.14368508513424 -18.831137681234775,34.14368508513424 -19.34434516239997,34.14368508513424 -19.60094890298257,34.229219665328415 -20.114156384147762,34.229219665328415 -21.140571346478126,34.31475424552262 -21.73931340783753,34.31475424552262 -22.252520889002724,34.40028882571683 -22.509124629585298,34.40028882571683 -23.1078666909447,34.48582340591102 -23.535539591915686,34.48582340591102 -24.048747073080882,34.57135798610523 -24.305350813663477,34.57135798610523 -24.561954554246075,34.57135798610523 -25.502834936382257,34.656892566299405 -26.016042417547453,34.74242714649361 -26.358180738324233,34.74242714649361 -27.7267340214314,34.82796172668782 -28.068872342208195,34.91349630688201 -29.437425625315374,34.999030887076216 -29.779563946092168,34.999030887076216 -30.29277142725735,35.08456546727042 -30.72044432822835,35.1701000474646 -31.31918638958774,35.341169207853014 -31.83239387075292,35.51223836824141 -33.11541257366589,35.85437668901818 -33.37201631424849,35.93991126921239 -33.88522379541369,36.0254458494066 -34.39843127657887,36.19651500979499 -35.59591539929765,36.53865333057177 -36.964468682404835,36.96632623154278 -37.990883644735206,37.30846455231956 -38.333021965512,37.39399913251377 -38.67516028628879,37.479533712707955 -39.35943692784238,37.73613745329055 -39.787109828813364,37.907206613678966 -40.89905937133795,38.163810354261535 -41.925474333668326,38.50594867503834 -42.26761265444512,38.591483255232546 -42.609750975221914,38.76255241562094 -44.49151173949428,39.275759896786134 -44.74811548007687,39.446829057174526 -45.09025380085367,39.53236363736873 -46.116668763184045,39.78896737795133 -46.54434166415504,39.96003653833972 -46.97201456512603,39.78896737795133 -46.88647998493183,40.0455711185339 -47.399687466097014,40.21664027892231 -47.74182578687381,40.3021748591165 -48.16949868784481,40.47324401950491 -49.024844489786794,40.72984776008751 -49.28144823036938,40.815382340281694 -50.222328612505564,41.1575206610585 -50.99213983425336,41.32858982144689 -51.41981273522434,41.499658981835275 -51.93302021638954,41.670728142223666 -52.702831438137316,41.841797302612086 -53.21603891930251,42.01286646300047 -53.643711820273495,42.18393562338886 -54.24245388163289,42.355004783777275 -54.75566136279808,42.52607394416567 -55.01226510338067,42.61160852435985 -55.43993800435167,42.782677684748265 -56.038680065711056,43.03928142533086 -56.55188754687624,43.29588516591346 -57.06509502804143,43.46695432630185 -57.32169876862403,43.63802348669024 -57.66383708940082,43.72355806688444 -58.77578663192539,44.322300128243825 -59.46006327347898,44.57890386882642 -59.80220159425577,44.749973029214814 -60.144339915032575,44.92104218960323 -60.48647823580937,45.09211134999162 -60.914151136780355,45.26318051038 -61.51289319813975,45.60531883115681 -62.28270441988752,45.94745715193359 -62.71037732085853,46.118526312322004 -62.96698106144111,46.289595472710396 -63.651257702994705,46.546199213292994 -63.9933960237715,46.717268373681385 -64.67767266532509,47.05940669445816 -64.93427640590768,47.14494127465237 -65.19088014649027,47.31601043504076 -65.53301846726707,47.48707959542917 -65.78962220784966,47.57261417562336 -66.13176052862644,47.74368333601177 -66.64496800979164,48.00028707659435 -67.07264091076263,48.17135623698276 -67.32924465134523,48.256890817176945 -67.58584839192783,48.34242539737115 -68.01352129289882,48.59902913795375 -68.35565961367561,48.770098298342134 -68.6122633542582,48.85563287853635 -69.03993625522921,49.02670203892473 -69.38207457600599,49.197771199313124 -71.43490450066675,50.224186161643516 -71.86257740163774,50.3952553220319 -72.80345778377392,50.82292822300289 -73.23113068474491,50.9939973833913 -73.9154073262985,51.336135704168086 -74.3430802272695,51.592739444750684 -74.68521854804628,51.67827402494489 -75.11289144901728,51.93487776552749 -75.45502976979408,52.10594692591588 -75.88270267076506,52.36255066649848 -76.31037557173606,52.704688987275254 -76.65251389251286,52.87575814766367 -77.08018679348385,53.132361888246265 -77.33679053406644,53.21789646844045 -77.59339427464904,53.38896562882884 -78.53427465678521,53.90217310999403 -78.87641297756201,54.07324227038245 -79.21855129833881,54.32984601096502 -79.47515503892139,54.500915171353434 -79.73175877950399,54.671984331741825 -80.07389710028077,54.84305349213022 -80.58710458144597,55.18519181290702 -81.01477748241696,55.44179555348962 -81.52798496358216,55.783933874266395 -81.87012328435894,56.04053761484899 -82.12672702494154,56.1260721950432 -82.72546908630093,56.55374509601419 -83.23867656746611,56.89588341679097 -83.75188404863131,57.23802173756778 -84.0084877892139,57.323556317761984 -84.60722985057329,57.83676379892715 -85.20597191193269,58.178902119703956 -85.46257565251528,58.34997128009235 -86.06131771387466,58.69210960086915 -86.91666351581665,59.290851662228526 -88.45628595931223,60.23173204436471 -88.71288969989482,60.402801204753125 -88.96949344047742,60.57387036514152 -89.31163176125419,60.830474105724115 -89.5682355018368,61.001543266112506 -90.16697756319618,61.34368158688928 -92.30534206805115,62.79776945019066 -93.67389535115831,63.65311525213266 -94.10156825212931,63.909718992715256 -94.4437065729061,64.08078815310364 -94.70031031348869,64.25185731349204 -95.89779443620746,65.107203115434 -96.15439817679007,65.27827227582242 -96.49653649756686,65.44934143621082 -97.00974397873205,65.7914797569876 -98.20722810145082,66.56129097873539 -99.4902468043638,67.50217136087157 -99.74685054494641,67.67324052125997 -100.00345428552899,67.84430968164838 -100.77326550727678,68.44305174300774 -101.11540382805357,68.61412090339614 -101.62861130921877,68.95625922417295 -102.05628421018976,69.29839754494975 -102.39842253096654,69.55500128553233 -103.08269917252014,70.06820876669752 -104.19464871504472,70.83801998844531 -104.62232161601571,71.1801583092221 -105.13552909718089,71.52229662999889 -105.39213283776348,71.69336579038729 -109.07011978611402,74.34493777640745 -109.92546558805599,74.94367983776682 -110.43867306922118,75.28581815854362 -111.12294971077478,75.79902563970882 -111.55062261174577,76.0556293802914 -112.49150299388194,76.82544060203918 -112.74810673446454,76.99650976242759 -113.00471047504713,77.16757892281599 -113.60345253640651,77.59525182378698 -114.37326375815431,78.19399388514637 -114.8864712393195,78.62166678611736 -115.48521330067888,79.22040884747673 -115.74181704126147,79.47701258805934 -116.51162826300927,80.33235839000132 -117.11037032436867,80.93110045136072 -117.36697406495124,81.27323877213749 -117.62357780553384,81.4443079325259 -117.88018154611643,81.78644625330269 -118.22231986689324,82.1285845740795 -118.47892360747583,82.38518831466209 -118.73552734805844,82.6417920552447 -118.99213108864103,82.89839579582727 -119.41980398961202,83.32606869679827 -119.67640773019461,83.58267243738086 -120.0185460509714,84.01034533835185 -120.53175353213659,84.52355281951705 -120.7883572727192,84.78015656009963 -121.04496101330179,85.03676030068222 -121.30156475388438,85.29336404126482 -121.64370307466116,85.63550236204162 -121.98584139543797,86.06317526301261 -122.41351429640896,86.4908481639836 -122.67011803699155,86.83298648476041 -122.92672177757414,87.0040556451488 -123.18332551815675,87.26065938573139 -123.35439467854513,87.51726312631399 -123.61099841912774,87.77386686689658 -123.86760215971033,88.11600518767337 -124.12420590029294,88.45814350845018 -124.4663442210697,88.80028182922695 -124.6374133814581,89.05688556980955 -124.8940171220407,89.31348931039214 -125.32169002301168,89.82669679155734 -125.6638283437885,90.16883511233412 -125.92043208437109,90.51097343311093 -126.34810498534208,91.02418091427612 -126.69024330611887,91.4518538152471 -127.03238162689566,91.8795267162181 -127.28898536747826,92.2216650369949 -127.63112368825506,92.56380335777168 -127.97326200903184,92.99147625874267 -128.31540032980865,93.33361457951948 -128.57200407039124,93.67575290029625 -128.914142391168,94.10342580126726 -129.08521155155643,94.36002954184985 -129.42734987233322,95.04430618340345 -129.5984190327216,95.30090992398601 -129.76948819311002,95.55751366456862 -130.02609193369258,95.98518656553964 -130.2826956742752,96.3273248863164 -130.45376483466362,96.66946320709322 -130.71036857524618,97.0971361080642 -131.05250689602298,97.6103435892294 -131.22357605641136,97.86694732981199 -131.3946452167998,98.12355107039457 -131.65124895738236,98.55122397136557 -131.90785269796496,99.23550061291917 -132.07892185835337,99.49210435350176 -132.16445643854755,100.17638099505534 -132.16445643854755,100.60405389602633 -132.24999101874175,100.86065763660893 -132.24999101874175,101.28833053757991 -132.33552559893596,101.63046885835669 -132.33552559893596,101.8870725989393 -132.33552559893596,102.14367633952189 -132.42106017913017,102.4002800801045 -132.42106017913017,102.91348756126968 -132.50659475932437,103.17009130185228 -132.59212933951855,103.85436794340586 -132.67766391971276,104.45311000476524 -132.67766391971276,104.79524832554205 -132.67766391971276,105.22292122651304 -132.67766391971276,105.47952496709563 -132.67766391971276,105.82166328787244 -132.67766391971276,106.16380160864921 -132.67766391971276,107.2757511511738 -132.76319849990696,108.13109695311579 -132.76319849990696,108.38770069369838 -132.76319849990696,108.98644275505777 -132.76319849990696,110.01285771738816 -132.76319849990696,110.61159977874753 -132.76319849990696,111.21034184010693 -132.84873308010114,111.63801474107791 -132.84873308010114,111.89461848166052 -132.84873308010114,112.2367568024373 -132.84873308010114,112.7499642836025 -132.93426766029535,114.71725962806906 -133.01980224048955,117.1977624537008 -133.10533682068373,118.30971199622537 -133.19087140087794,121.13235314263392 -133.19087140087794,121.47449146341073 -133.10533682068373,121.90216436438172 -133.10533682068373,122.4153718455469 -132.93426766029535,123.0996484871005 -132.93426766029535,123.35625222768309 -132.84873308010114,123.95499428904247 -132.67766391971276,125.15247841176125 -132.59212933951855,125.75122047312063 -132.59212933951855,126.09335879389742 -132.42106017913017,127.20530833642201 -132.33552559893596,127.71851581758719 -132.33552559893596,128.060654138364 -132.07892185835337,129.25813826108276 -132.07892185835337,129.51474200166535 -131.99338727815916,129.77134574224795 -131.99338727815916,130.02794948283054 -131.90785269796496,130.37008780360733 -131.82231811777078,131.05436444516093 -131.73678353757657,131.73864108671452 -131.5657143771882,132.2518485678797 -131.3946452167998,133.44933269059848 -131.3946452167998,133.70593643118107 -131.22357605641136,134.56128223312305 -130.5392994148578,138.49587292205618 -130.5392994148578,138.7524766626388 -130.197161094081,140.03549536555175 -130.02609193369258,140.80530658729953 -129.8550227733042,141.14744490807632 -129.68395361291581,142.0883252902125 -129.5984190327216,142.3449290307951 -128.74307323077963,145.59524307817463 -128.40093491000283,146.96379636128182 -128.22986574961445,147.5625384226412 -127.46005452786665,150.64178330963233 -127.37451994767247,150.89838705021495 -127.20345078728405,151.58266369176852 -126.34810498534208,154.2342356777887 -124.55187880126391,157.9122226261392 -123.09779093796254,161.41914041410132 -122.67011803699155,162.53108995662592 -122.41351429640896,163.0442974377911 -122.24244513602056,163.4719703387621 -121.81477223504957,164.49838530109247 -121.47263391427278,165.43926568322865 -120.1040806311656,167.57763018808362 -119.41980398961202,168.6895797306082 -115.99842078184408,172.8807741601239 -115.82735162145568,173.1373779007065 -115.1430749799021,173.9927237026485 -114.8864712393195,174.33486202342527 -114.6298674987369,174.59146576400786 -113.86005627698911,175.61788072633826 -113.43238337601812,176.21662278769764 -110.0110001682502,180.49335179740757 -108.55691230494882,182.20404340129153 -107.27389360203586,183.9147350051755 -107.01728986145326,184.17133874575808 -106.50408238028807,184.85561538731167 -106.24747863970548,185.19775370808847 -105.99087489912287,185.53989202886527 -105.56320199815188,185.96756492983627 -105.30659825756929,186.30970325061304 -104.4512524556273,187.25058363274923 -104.10911413485051,187.67825653372023 -103.85251039426791,187.93486027430282 -103.68144123387953,188.1914640148854 -103.33930291310271,188.5336023356622 -102.82609543193753,189.1323443970216 -102.48395711116075,189.47448271779837 -102.14181879038395,189.8166210385752 -101.88521504980136,190.07322477915778 -101.54307672902456,190.41536309993455 -101.02986924785937,190.92857058109973 -100.34559260630579,191.52731264245915 -99.83238512514059,192.04052012362433 -99.575781384558,192.29712386420692 -99.31917764397541,192.55372760478951 -98.8915047430044,192.98140050576052 -98.37829726183922,193.40907340673152 -98.12169352125663,193.7512117275083 -97.86508978067404,193.9222808878967 -97.43741687970304,194.3499537888677 -97.00974397873205,194.77762668983868 -95.89779443620746,195.80404165216908 -95.38458695504228,196.40278371352846 -94.6147757332945,197.08706035508203 -94.4437065729061,197.34366409566462 -91.87766916708014,199.82416692129638 -90.68018504436138,201.02165104401516 -88.96949344047742,202.6468080677049 -86.83112893562246,204.78517257255987 -85.20597191193269,206.41032959624965 -84.43616069018489,207.18014081799743 -81.44245038338796,210.08831654460016 -80.33050084086338,210.85812776634796 -79.90282793989239,211.11473150693058 -79.47515503892139,211.37133524751317 -74.3430802272695,214.7927184552811 -73.57326900552171,215.30592593644627 -64.76320724551928,221.03674280945756 -64.24999976435409,221.29334655004018 -62.71037732085853,222.31976151237055 -61.85503151891654,222.83296899353576 -61.51289319813975,223.08957273411835 -60.48647823580937,223.60278021528353 -56.29528380629364,225.4845409795559 -55.95314548551685,225.6556101399443 -55.61100716474006,225.82667930033267 -55.35440342415746,225.91221388052688 -54.75566136279808,226.1688176211095 -54.49905762221549,226.33988678149785 -53.8147809806619,226.59649052208044 -53.47264265988511,226.76755968246886 -53.130504339108306,226.93862884285724 -52.873900598525715,227.02416342305145 -52.617296857943124,227.19523258343986 -52.18962395697212,227.36630174382827 -51.93302021638954,227.53737090421663 -51.590881895612746,227.62290548441084 -50.906605254059144,227.96504380518763 -50.30786319269977,228.22164754577022 -49.965724871922966,228.3927167061586 -49.623586551146175,228.56378586654702 -49.11037906998099,228.8203896071296 -48.5971715888158,229.0769933477122 -47.99842952745641,229.3335970882948 -47.65629120667961,229.50466624868318 -47.31415288590282,229.5902008288774 -46.116668763184045,230.1889428902368 -45.77453044240725,230.27447747043098 -45.261322961242065,230.3600120506252 -44.577046319688485,230.44554663081936 -44.06383883852329,230.53108121101357 -43.80723509794069,230.61661579120778 -42.78082013561031,230.7876849515962 -42.26761265444512,230.8732195317904 -41.07012853172634,231.04428869217878 -40.55692105056116,231.129823272373 -40.30031730997856,231.21535785256717 -39.27390234764818,231.38642701295555 -39.017298607065584,231.47196159314976 -38.760694866482986,231.47196159314976 -38.50409112590039,231.55749617334396 -37.905349064541,231.64303075353814 -36.87893410221062,231.81409991392658 -36.53679578143383,231.89963449412076 -35.51038081910345,232.07070365450917 -35.253777078520855,232.15623823470335 -34.82610417754987,232.24177281489756 -34.22736211619048,232.32730739509174 -33.88522379541369,232.41284197528594 -33.5430854746369,232.41284197528594 -32.94434341327751,232.41284197528594 -32.51667051230652,232.41284197528594 -32.26006677172392,232.49837655548015 -32.00346303114132,232.49837655548015 -31.575790130170336,232.49837655548015 -30.378306007451556,232.32730739509174 -30.036167686674766,232.24177281489756 -29.608494785703765,232.15623823470335 -29.095287304538584,232.07070365450917 -28.838683563955986,232.07070365450917 -28.582079823373387,231.98516907431497 -28.239941502596597,231.89963449412076 -27.812268601625608,231.89963449412076 -27.470130280848803,231.81409991392658 -27.213526540266205,231.81409991392658 -26.78585363929522,231.72856533373235 -26.358180738324233,231.64303075353814 -26.101576997741635,231.64303075353814 -25.67390409677065,231.55749617334396 -25.41730035618805,231.38642701295555 -25.07516203541127,231.30089243276137 -24.647489134440256,231.129823272373 -24.390885393857662,230.95875411198458 -23.45000501172148,230.61661579120778 -22.851262950362102,230.27447747043098 -22.509124629585298,230.1889428902368 -22.252520889002724,230.1034083100426 -21.995917148420126,229.9323391496542 -21.73931340783753,229.84680456946 -21.397175087060724,229.7612699892658 -21.140571346478126,229.5902008288774 -20.88396760589553,229.50466624868318 -20.45629470492454,229.3335970882948 -20.114156384147762,229.1625279279064 -19.60094890298257,228.99145876751803 -19.34434516239997,228.8203896071296 -18.40346478026379,228.47825128635282 -17.291515237739215,228.05057838538184 -16.94937691696241,227.87950922499343 -16.60723859618563,227.79397464479925 -16.265100275408827,227.62290548441084 -16.00849653482623,227.53737090421663 -15.751892794243632,227.45183632402245 -15.153150732884255,227.19523258343986 -14.554408671524852,226.93862884285724 -14.29780493094228,226.85309426266306 -13.870132029971268,226.68202510227465 -13.44245912900028,226.51095594188627 -12.843717067640904,226.25435220130367 -12.501578746864098,226.1688176211095 -12.244975006281502,226.08328304091526 -11.988371265698904,225.91221388052688 -11.389629204339528,225.74114472013846 -11.047490883562721,225.57007555975008 -10.79088714298015,225.4845409795559 -10.448748822203346,225.3134718191675 -10.192145081620748,225.3134718191675 -9.93554134103815,225.2279372389733 -9.507868440067163,225.14240265877908 -9.080195539096175,225.0568680785849 -8.823591798513577,224.9713334983907 -8.566988057930981,224.9713334983907 -8.310384317348383,224.88579891819649 -8.053780576765787,224.80026433800228 -7.797176836183189,224.80026433800228 -7.540573095600592,224.7147297578081 -7.112900194629604,224.6291951776139 -6.685227293658617,224.54366059741972 -6.42862355307602,224.4581260172255 -5.915416071910824,224.3725914370313 -5.658812331328227,224.28705685683713 -5.402208590745655,224.28705685683713 -4.974535689774642,224.3725914370313 -4.717931949192045,224.3725914370313 -4.461328208609473,224.4581260172255 -4.119189887832668,224.54366059741972 -3.520447826473291,224.7147297578081 -3.2638440858906934,224.80026433800228 -2.9217057651138885,224.80026433800228 -2.579567444337109,224.88579891819649 -2.237429123560304,225.0568680785849 -1.8952908027835242,225.0568680785849 -1.6386870622009269,225.14240265877908 -1.296548741424122,225.2279372389733 -0.9544104206473423,225.3134718191675 -0.5267375196763299,225.39900639936167 -0.2701337790937325,225.4845409795559 0.1575391218772548,225.57007555975008 0.41414286245985216,225.6556101399443 0.9273503436250218,225.74114472013846 1.1839540842076193,225.82667930033267 1.526092404984424,225.91221388052688 1.9537653059554114,225.99774846072106 2.2103690465380086,226.08328304091526 2.638041947508996,226.1688176211095 2.894645688091593,226.25435220130367 3.1512494286741908,226.33988678149785 3.407853169256788,226.33988678149785 3.749991490033568,226.4254213616921 4.006595230616165,226.51095594188627 4.434268131587152,226.59649052208044 4.69087187216975,226.68202510227465 5.033010192946555,226.76755968246886 5.289613933529152,226.85309426266306 5.6317522543059315,226.93862884285724 5.88835599488853,226.93862884285724 6.144959735471127,227.02416342305145 6.401563476053724,227.10969800324565 6.743701796830529,227.10969800324565 7.0003055374131264,227.19523258343986 7.256909277995699,227.28076716363404 7.513513018578296,227.36630174382827 7.770116759160893,227.45183632402245 8.02672049974349,227.45183632402245 8.283324240326088,227.53737090421663 8.882066301685466,227.70844006460504 9.309739202656477,227.79397464479925 9.566342943239075,227.87950922499343 9.994015844210063,227.96504380518763 10.421688745181049,228.05057838538184 10.763827065957829,228.13611296557602 11.020430806540427,228.22164754577022 11.362569127317231,228.30718212596443 11.61917286789983,228.3927167061586 12.046845768870817,228.47825128635282 12.303449509453413,228.56378586654702 12.645587830230193,228.64932044674123 13.073260731201206,228.73485502693543 13.329864471783779,228.8203896071296 13.75753737275479,228.90592418732382 14.014141113337388,228.99145876751803 14.27074485391996,229.0769933477122 14.698417754890972,229.1625279279064 14.95502149547357,229.24806250810062 15.211625236056141,229.3335970882948 15.639298137027154,229.419131668489 15.895901877609752,229.50466624868318 16.152505618192325,229.50466624868318 16.49464393896913,229.5902008288774 16.751247679551728,229.67573540907162 17.093386000328508,229.7612699892658 17.8631972220763,229.9323391496542 18.547473863629882,230.1034083100426 18.80407760421248,230.1889428902368 19.06068134479508,230.27447747043098 19.659423406154456,230.44554663081936 19.91602714673705,230.53108121101357 20.25816546751386,230.53108121101357 20.60030378829064,230.70215037140198 21.02797668926165,230.7876849515962 21.455649590232635,230.8732195317904 21.883322491203625,230.95875411198458 22.31099539217461,231.04428869217878 22.56759913275721,231.129823272373 22.824202873339807,231.21535785256717 23.42294493469918,231.30089243276137 25.04810195838895,231.64303075353814 25.817913180136742,231.98516907431497 26.502189821690326,231.98516907431497 26.84432814246713,232.07070365450917 39.93111891217947,235.57762144247127 39.76004975179108,235.06441396130612 29.23929638790469,232.32730739509174 29.58143470868147,232.41284197528594 29.83803844926407,232.41284197528594 30.265711350235055,232.49837655548015 30.69338425120604,232.49837655548015 30.94998799178864,232.49837655548015 31.377660892759625,232.58391113567433 31.719799213536433,232.58391113567433 32.06193753431321,232.66944571586853 32.91728333625521,232.75498029606274 33.858163718391395,232.84051487625695 34.371371199556584,232.92604945645115 35.48332074208116,233.01158403664533 36.082062803440536,233.09711861683954 36.766339444994124,233.18265319703374 37.10847776577093,233.18265319703374 38.2204273082955,233.35372235742213 38.477031048878096,233.35372235742213 38.8191693696549,233.35372235742213 39.33237685082007,233.43925693761634 39.93111891217947,233.5247915178105 40.18772265276207,233.5247915178105 40.61539555373306,233.61032609800472 41.98394883684023,233.7813952583931 42.240552577422825,233.7813952583931 42.8392946387822,233.8669298385873 43.4380367001416,233.8669298385873 43.780175020918385,233.95246441878152 44.03677876150098,233.95246441878152 44.37891708227779,233.95246441878152 44.80658998324877,234.03799899897572 45.148728304025575,234.12353357916993 45.83300494557916,234.12353357916993 46.43174700693854,234.2090681593641 47.287092808880516,234.29460273955831 47.800300290045705,234.38013731975252 48.227973191016694,234.38013731975252 48.5701115117935,234.4656718999467 48.8267152523761,234.4656718999467 49.083318992958695,234.4656718999467 49.93866479490067,234.63674106033508 51.307218078007836,234.7222756405293 51.90596013936724,234.8078102207235 52.162563879949836,234.8078102207235 52.50470220072662,234.89334480091767 52.76130594130922,234.89334480091767 53.10344426208602,234.9788793811119 54.64306670558158,235.1499485415003 55.32734334713516,235.2354831216945 55.75501624810615,235.2354831216945 56.86696579063075,235.1499485415003 57.55124243218433,235.1499485415003 66.61790793276936,234.29460273955831 82.01413236772504,232.84051487625695 85.77765389626977,232.49837655548015 86.11979221704655,232.49837655548015 86.46193053782338,232.49837655548015 90.6531249673391,231.38642701295555 93.64683527413601,230.61661579120778 99.8908596283125,228.47825128635282 100.4896016896719,228.05057838538184 103.31224283608044,225.91221388052688 103.9109848974398,225.39900639936167 105.19400360035281,224.1159876964487 105.6216765013238,223.6883147954777 107.76004100617874,220.86567364906915 108.01664474676136,220.6946044886808 108.27324848734393,220.2669315877098 108.44431764773235,220.0103278471272 110.7537513129757,216.84554837994185 111.01035505355827,216.50341005916505 111.60909711491767,214.7071838750869 111.86570085550024,214.1084418137275 111.95123543569446,213.8518380731449 112.12230459608287,213.25309601178554 112.29337375647123,212.73988853062033 112.37890833666543,212.39775020984354 112.63551207724807,211.97007730887253 112.63551207724807,211.62793898809576 112.80658123763642,211.28580066731894 113.49085787919003,209.4040399030466 113.57639245938424,209.0619015822698 113.74746161977261,208.4631595209104 113.91853078016102,208.20655578032782 114.00406536035523,207.86441745955102 114.2606691009378,207.26567539819166 114.34620368113201,207.00907165760904 114.773876582103,205.72605295469606 114.94494574249141,205.29838005372508 115.20154948307399,204.61410341217152 115.3726186434624,204.1864305112005 115.45815322365661,203.8442921904237 115.62922238404497,203.50215386964692 115.80029154443339,203.0744809686759 115.8858261246276,202.81787722809332 115.9713607048218,202.47573890731655 116.65563734637536,200.67951272323836 116.74117192656956,200.3373744024616 116.99777566715214,199.73863234110217 117.08331024734635,199.48202860051958 117.42544856812313,198.6266827985776 117.51098314831734,198.2845444778008 117.68205230870575,197.68580241644142 " 
stroke="crimson" 
stroke-width="1" 
fill="none"
id="line0" />

</g>
</g>
<g
inkscape:label="Slice 2"
inkscape:groupmode="layer" 
id="layer2" 
><g
id="g372">
  <polyline points="-5.573277751134045,194.09335004828512 -5.487743170939837,194.3499537888677 -5.145604850163058,194.8631612700329 -4.889001109580461,195.2908341710039 -4.632397368997863,195.80404165216908 -4.461328208609473,196.06064539275167 -4.204724468026876,196.48831829372267 -4.119189887832668,196.74492203430523 -3.9481207274442784,197.00152577488785 -3.691516986861681,197.34366409566462 -3.520447826473291,197.60026783624724 -3.349378666084876,198.02794073721822 -3.0072403453080963,198.6266827985776 -2.836171184919681,198.9688211193544 -2.6651020245312913,199.225424859937 -2.066359963171914,199.9097015014906 -1.8952908027835242,200.16630524207318 -1.6386870622009269,200.42290898265577 -1.0399450008415245,201.44932394498613 -0.9544104206473423,201.70592768556872 -0.6122720998705373,202.21913516673393 -0.4412029394821475,202.56127348751073 -0.0990646187053426,203.16001554887012 0.1575391218772548,203.5876884498411 0.32860828226564465,203.8442921904237 0.4996774426540345,204.1864305112005 0.756281183236632,204.6996379923657 1.0984195040134368,205.29838005372508 1.4405578247902167,205.55498379430767 1.697161565372814,205.64051837450188 2.1248344663438012,205.81158753489026 2.5525073673148135,205.89712211508447 4.17766439100458,206.41032959624965 4.434268131587152,206.49586417644386 4.69087187216975,206.58139875663804 5.118544773140762,206.75246791702645 5.460683093917542,206.83800249722066 5.973890575082737,207.00907165760904 6.572632636442114,207.18014081799743 7.513513018578296,207.52227913877422 8.368858820520297,207.77888287935684 8.625462561102893,207.86441745955102 9.138670042268062,208.03548661993943 9.822946683821648,208.20655578032782 10.934896226346245,208.20655578032782 11.362569127317231,208.03548661993943 12.816656990618608,207.43674455858005 13.415399051977985,207.18014081799743 13.672002792560583,206.75246791702645 14.014141113337388,206.23926043586127 14.441814014308376,205.64051837450188 14.698417754890972,205.29838005372508 14.869486915279362,204.95624173294829 15.211625236056141,204.4430342517831 15.382694396444558,204.1864305112005 15.895901877609752,203.50215386964692 16.152505618192325,203.3310847092585 16.40910935877492,203.3310847092585 16.665713099357518,203.24555012906433 16.922316839940116,203.16001554887012 17.178920580522714,203.0744809686759 17.6065934814937,202.90341180828753 18.03426638246469,202.6468080677049 18.376404703241494,202.56127348751073 18.80407760421248,202.30466974692814 19.317285085377677,202.13360058653973 19.488354245766065,201.87699684595714 19.744957986348663,201.44932394498613 19.91602714673705,201.19272020440354 20.60030378829064,200.16630524207318 21.02797668926165,199.48202860051958 21.54118417042682,198.7122173787718 21.797787911009415,198.370079057995 21.96885707139783,198.11347531741242 22.13992623178622,197.77133699663563 22.225460811980405,196.65938745411106 22.31099539217461,196.23171455314005 22.31099539217461,195.80404165216908 22.396529972368818,195.46190333139228 22.396529972368818,195.0342304304213 22.396529972368818,194.77762668983868 22.482064552563,194.2644192086735 22.482064552563,193.9222808878967 22.482064552563,193.6656771473141 22.31099539217461,193.32353882653732 22.13992623178622,192.98140050576052 21.883322491203625,192.38265844440113 21.54118417042682,191.01410516129397 21.54118417042682,190.75750142071138 21.455649590232635,190.5008976801288 21.37011501003843,190.24429393954617 20.942442109067443,190.07322477915778 20.514769208096453,189.90215561876937 20.25816546751386,189.73108645838096 19.659423406154456,189.47448271779837 19.146215924989285,189.21787897721578 18.63300844382409,188.96127523663318 18.376404703241494,188.7902060762448 18.119800962658896,188.7046714960506 18.290870123047284,188.1059294346912 18.205335542853103,187.84932569410861 18.03426638246469,187.50718737333182 17.77766264188209,187.42165279313764 17.52105890129952,187.25058363274923 17.178920580522714,187.0795144723608 16.40910935877492,186.73737615158404 16.06697103799814,186.48077241100145 15.981436457803934,186.73737615158404 15.724832717221338,186.65184157138984 15.724832717221338,186.39523783080725 15.639298137027154,186.05309951003045 15.553763556832948,185.71096118925368 15.29715981625035,185.53989202886527 14.869486915279362,185.36882286847685 13.586468212366375,184.7700808071175 13.073260731201206,184.42794248634067 12.816656990618608,184.3424079061465 12.560053250036011,184.17133874575808 12.303449509453413,184.0002695853697 11.61917286789983,183.6581312645929 11.362569127317231,183.57259668439872 11.105965386734635,183.4015275240103 10.849361646152037,183.3159929438161 10.336154164986842,182.9738546230393 10.079550424404244,182.88832004284512 9.822946683821648,182.7172508824567 8.539927980908686,182.03297424090312 8.112255079937698,181.77637050032052 7.684582178966711,181.51976675973793 7.256909277995699,181.34869759934955 7.0003055374131264,181.17762843896116 6.743701796830529,181.00655927857275 6.230494315665334,180.74995553799016 5.88835599488853,180.57888637760175 5.2040793533349445,180.66442095779595 4.947475612752347,180.66442095779595 4.69087187216975,180.83549011818437 4.17766439100458,181.34869759934955 3.9210606504219827,181.60530133993214 3.6644569098393855,181.86190508051476 3.3223185890625806,182.20404340129153 2.980180268285801,182.54618172206833 2.1248344663438012,183.3159929438161 1.8682307257612039,183.3159929438161 1.3550232445960342,183.3159929438161 1.0984195040134368,183.57259668439872 0.9273503436250218,183.8292004249813 0.41414286245985216,184.3424079061465 -0.0990646187053426,184.7700808071175 -0.2701337790937325,185.02668454770009 -0.6122720998705373,185.36882286847685 -0.9544104206473423,185.71096118925368 -1.296548741424122,185.96756492983627 -1.5531524820067193,186.22416867041886 -1.9808253829777067,186.65184157138984 -2.237429123560304,186.82291073177825 -2.4940328641429015,187.16504905255505 -2.7506366047254986,187.59272195352602 -3.0072403453080963,188.020394854497 -3.2638440858906934,188.448067755468 -3.520447826473291,188.7046714960506 -3.7770515670558633,189.1323443970216 -3.9481207274442784,189.47448271779837 -4.290259048221058,189.90215561876937 -4.461328208609473,190.24429393954617 -4.632397368997863,190.5008976801288 -4.803466529386252,190.75750142071138 -4.974535689774642,191.01410516129397 -5.23113943035724,191.35624348207074 -5.316674010551448,191.61284722265333 -5.487743170939837,191.86945096323592 -5.487743170939837,192.21158928401275 -5.487743170939837,192.55372760478951 -5.573277751134045,192.89586592556634 -5.573277751134045,193.15246966614893 -5.573277751134045,194.09335004828512 " 
stroke="gray" 
stroke-width="1" 
fill="none"
id="line1" />

</g>
</g>
<g
inkscape:label="Slice 3"
inkscape:groupmode="layer" 
id="layer3" 
></g>
</svg>