<?xml version="1.0" encoding="UTF-8" ?>
<svg    xmlns:dc="http://purl.org/dc/elements/1.1/" xmlns:cc="http://creativecommons.org/ns#" xmlns:rdf="http://www.w3.org/1999/02/22-rdf-syntax-ns#" xmlns:svg="http://www.w3.org/2000/svg" xmlns="http://www.w3.org/2000/svg" xmlns:sodipodi="http://sodipodi.sourceforge.net/DTD/sodipodi-0.dtd" xmlns:inkscape="http://www.inkscape.org/namespaces/inkscape" version="1.1" viewBox="-133.27438686793528 -64.87816455921607 254.438422049675 198.83578423003394" id="svg2" width="71.80817864488598mm"
 height="56.11587825441993mm">
 <defs  
  id="defs4" /> 
 <sodipodi:namedview 
  id="base" 
  pagecolor="#ffffff" 
  bordercolor="#666666" 
  borderopacity="1.0" 
 inkscape:pageopacity="0.0" 
 inkscape:pageshadow="2" 
  inkscape:document-units="mm" 
  inkscape:current-layer="layer1" 
 showgrid="false" 
  />
<g
inkscape:label="Slice 1"
inkscape:groupmode="layer" 
id="layer1" 
><g
id="g371">
  <polyline points="117.78279369270753,96.67003991676805 117.9706404420982,96.20042304329135 117.9706404420982,95.91865291920534 118.15848719148887,94.79157242286126 118.34633394087956,94.04018542529855 118.44025731557487,93.28879842773583 118.6281040649656,92.44348805547777 118.7220274396609,91.59817768321972 118.81595081435627,91.03463743504767 118.90987418905158,90.75286731096166 119.00379756374694,90.09540368809428 119.09772093844225,89.62578681461758 119.19164431313762,89.06224656644554 119.19164431313762,88.4987063182735 119.94303131070032,82.48761033777177 119.94303131070032,82.11191683899041 120.03695468539568,81.26660646673236 120.6004949335677,76.94613123074674 120.69441830826301,76.3825909825747 120.78834168295838,74.87981698744926 120.88226505765374,74.31627673927723 121.07011180704441,73.00134949354246 121.07011180704441,72.71957936945645 121.16403518173973,72.43780924537043 121.07011180704441,72.15603912128442 121.07011180704441,71.78034562250305 120.97618843234905,71.21680537433102 120.97618843234905,70.84111187554966 120.88226505765374,70.27757162737761 120.88226505765374,69.90187812859627 120.88226505765374,69.62010800451024 120.78834168295838,69.33833788042423 120.78834168295838,68.86872100694752 120.78834168295838,68.5869508828615 120.69441830826301,68.30518075877549 120.6004949335677,67.08417688773608 120.6004949335677,66.80240676365005 120.6004949335677,66.52063663956403 120.50657155887234,66.14494314078269 120.50657155887234,65.86317301669666 120.50657155887234,65.29963276852462 120.50657155887234,64.92393926974327 120.41264818417703,64.45432239626658 120.41264818417703,64.17255227218054 120.41264818417703,63.89078214809453 120.41264818417703,63.60901202400851 120.41264818417703,62.857625026445795 120.31872480948167,62.57585490235977 120.31872480948167,60.979157532539 120.22480143478636,60.41561728436696 120.22480143478636,59.758153661499584 120.22480143478636,59.476383537413575 120.22480143478636,59.00676666393687 120.22480143478636,58.53714979046018 120.13087806009099,57.4100692941161 120.13087806009099,57.03437579533474 120.13087806009099,56.564758921858036 120.03695468539568,56.001218673686 120.03695468539568,55.5316018002093 120.03695468539568,54.874138177341926 120.03695468539568,54.59236805325591 120.03695468539568,54.21667455447455 119.94303131070032,53.74705768099785 119.94303131070032,53.465287556911825 119.94303131070032,53.183517432825816 119.94303131070032,52.901747308739786 119.94303131070032,52.432130435263105 119.94303131070032,52.150360311177074 119.849107936005,51.868590187091066 119.849107936005,51.492896688309706 119.849107936005,50.647586316051644 119.849107936005,50.27189281727029 119.849107936005,49.896199318488925 119.75518456130965,49.6144291944029 119.75518456130965,49.33265907031689 119.75518456130965,48.95696557153553 119.75518456130965,48.48734869805883 119.75518456130965,48.205578573972815 119.75518456130965,47.92380844988679 119.56733781191896,46.60888120415204 119.56733781191896,46.23318770537068 119.56733781191896,45.857494206589315 119.47341443722361,45.387877333112634 119.37949106252829,44.91826045963593 119.28556768783292,44.166873462073205 119.09772093844225,43.039792965729134 118.90987418905158,41.912712469385056 118.81595081435627,41.63094234529905 118.7220274396609,41.06740209712701 118.6281040649656,40.222091724868946 118.44025731557487,39.095011228524875 118.34633394087956,38.71931772974351 118.34633394087956,38.34362423096216 118.2524105661842,37.87400735748546 118.2524105661842,37.59223723339944 118.15848719148887,37.216543734618085 118.06456381679352,36.74692686114138 117.9706404420982,35.995539863578664 117.87671706740284,35.24415286601595 117.78279369270753,34.68061261784391 117.68887031801216,34.02314899497654 117.59494694331686,33.64745549619518 117.50102356862149,33.27176199741381 117.50102356862149,32.89606849863246 117.40710019392613,32.33252825046043 117.31317681923082,31.956834751679065 117.31317681923082,31.675064627593038 117.21925344453545,31.393294503507015 117.12533006984015,30.641907505944314 117.03140669514478,30.360137381858276 117.03140669514478,29.984443883076928 116.93748332044947,29.702673758990915 116.84355994575411,29.326980260209567 116.74963657105879,28.95128676142819 116.56178982166811,28.57559326264684 116.46786644697275,28.105976389170127 115.99824957349604,26.603202394044704 115.90432619880073,26.32143226995869 115.81040282410537,26.039662145872654 115.71647944941006,25.757892021786642 115.6225560747147,25.382198523005293 115.43470932532402,25.10042839891928 115.24686257593335,24.16119465196588 115.05901582654266,23.785501153184505 114.77724570245663,22.752344031535767 114.68332232776132,22.470573907449758 114.58939895306595,22.188803783363745 114.40155220367528,21.719186909887057 114.30762882897997,21.43741678580102 114.21370545428461,21.155646661715007 114.11978207958924,20.873876537628995 114.02585870489393,20.49818303884762 113.93193533019857,20.21641291476161 113.83801195550326,19.934642790675596 113.65016520611258,19.465025917198883 113.55624183141722,19.18325579311287 113.4623184567219,18.713638919636182 113.27447170733123,18.244022046159472 113.18054833263587,17.86832854737812 113.0866249579405,17.586558423292107 112.99270158324519,17.30478829920607 112.89877820854983,17.023018175120058 112.71093145915916,16.459477926948036 112.52308470976848,15.989861053471323 112.52308470976848,15.614167554689972 112.33523796037781,15.33239743060396 112.14739121098714,14.862780557127248 111.67777433751041,13.829623435478512 110.64461721586169,11.481539068095024 108.76614972195493,7.536757330890752 108.67222634725957,7.254987206804739 108.01476272439218,5.752213211679315 107.7329926003062,5.2825963382026035 107.54514585091547,4.812979464725916 107.16945235213413,3.9676690924678537 106.98160560274344,3.6858989683818417 106.88768222804813,3.4041288442958293 106.51198872926673,2.6527418467331048 106.32414197987606,2.1831249732564175 105.66667835700872,0.7742743528263056 104.91529135944597,-0.8224230169944559 104.82136798475067,-1.1041931410804682 104.63352123535999,-1.3859632651665057 104.4456744859693,-1.8555801386431927 104.25782773657859,-2.4191203868152424 103.9760576124926,-3.0765840096826045 103.69428748840656,-3.640124257854654 102.56720699206251,-6.082131999933478 102.37936024267184,-6.36390212401949 102.0975901185858,-6.833518997496203 102.00366674389043,-7.209212496277552 101.72189661980445,-7.584905995058902 101.62797324510909,-7.866676119144939 99.09204212833495,-12.093227980435225 98.43457850546757,-13.126385102083962 98.2467317560769,-13.408155226169974 97.21357463442816,-15.004852595990736 96.93180451034212,-15.38054609477211 96.65003438625608,-15.850162968248798 94.95941364174,-18.29217071032762 94.30195001887262,-19.23140445728102 91.76601890209844,-22.89441607039928 91.01463190453573,-24.021496566743355 90.63893840575439,-24.58503681491538 90.16932153227766,-25.336423812478106 89.51185790941028,-25.993887435345467 89.13616441062894,-26.46350430882218 88.8543942865429,-26.651351058212853 88.5726241624569,-26.933121182298866 88.38477741306623,-27.214891306384903 88.00908391428483,-27.590584805166255 87.44554366611281,-28.154125053338277 87.06985016733145,-28.529818552119654 86.03669304568272,-29.56297567376839 84.0643021770806,-31.253596418284488 83.78253205299457,-31.5353665423705 83.40683855421322,-31.911060041151877 82.65545155665048,-32.56852366401924 82.18583468317381,-32.94421716280061 80.58913731335305,-34.3530677832307 80.02559706518097,-34.82268465670741 79.27421006761827,-35.48014827957478 76.26866207736742,-38.016079396348935 75.70512182919535,-38.485696269825645 74.95373483163266,-39.143159892693006 74.67196470754662,-39.23708326738837 74.20234783406995,-39.424930016779044 73.92057770998392,-39.61277676616972 73.26311408711653,-39.800623515560396 72.6995738389445,-40.08239363964641 71.66641671729577,-40.55201051312312 70.53933622095167,-41.02162738659981 70.16364272217032,-41.11555076129515 69.50617909930293,-41.397320885381184 69.13048560052158,-41.11555076129515 68.75479210174024,-40.83378063720913 68.37909860295888,-40.458087138427786 68.00340510417753,-40.17631701434175 67.53378823070082,-39.800623515560396 67.15809473191948,-39.51885339147439 66.68847785844275,-39.23708326738837 66.40670773435677,-39.143159892693006 65.8431674861847,-38.673543019216325 65.5613973620987,-38.485696269825645 65.09178048862199,-38.016079396348935 64.62216361514528,-37.64038589756758 63.49508311880123,-36.60722877591885 63.02546624532452,-36.419382026528176 62.274079247761826,-36.13761190244216 59.26853125751092,-35.01053140609809 58.89283775872958,-34.91660803140275 54.9480560215253,-33.4138340362773 49.594423663890964,-31.5353665423705 48.37341979285153,-32.004983415847214 47.528109420593495,-32.28675353993322 46.49495229894476,-32.75637041340994 45.18002505320998,-33.22598728688663 44.52256143034262,-33.50775741097264 43.959021182170574,-33.69560416036331 43.67725105808456,-33.789527535058674 41.517013440091745,-34.72876128201205 36.72692133062944,-36.60722877591885 35.881610958371375,-36.888998900004864 34.566683712636625,-37.45253914817691 33.72137334037856,-37.73430927226292 31.27936559829974,-38.016079396348935 28.83735785622089,-38.29784952043497 25.92573324066538,-38.57961964452098 19.06932688790557,-39.33100664208371 18.130093140952198,-39.424930016779044 17.378706143389472,-39.51885339147439 13.809617904966576,-39.89454689025573 13.4339244061852,-39.98847026495107 12.588614033927163,-40.08239363964641 6.295747929339404,-40.739857262513794 5.450437557081342,-40.83378063720913 2.914506440307181,-41.11555076129515 2.5388129415258063,-41.30339751068582 2.257042817439794,-41.49124426007652 0.5664220729236696,-42.524401381725255 -1.4059687956784415,-43.74540525276467 -3.190512914889903,-45.7177961213668 -8.825915396610275,-52.01066222595454 -9.483379019477661,-52.762049223517266 -11.549693262775136,-55.016210216205415 -12.676773759119211,-56.23721408724482 -16.433708746932783,-60.46376594853511 -17.46686586858152,-61.59084644487918 -17.654712617972194,-61.8726165689652 -20.378490484137057,-64.78424118452074 -20.94203073230908,-64.87816455921607 -21.317724231090455,-64.87816455921607 -21.88126447926248,-64.87816455921607 -22.256957978043854,-64.87816455921607 -22.91442160091122,-64.87816455921607 -23.290115099692592,-64.87816455921607 -23.66580859847394,-64.78424118452074 -24.229348846645966,-64.78424118452074 -24.605042345427343,-64.78424118452074 -25.450352717685377,-64.78424118452074 -25.732122841771417,-64.78424118452074 -26.38958646463878,-64.78424118452074 -26.671356588724816,-64.78424118452074 -27.1409734622015,-64.78424118452074 -27.422743586287513,-64.6903178098254 -27.892360459764227,-64.6903178098254 -28.361977333240915,-64.6903178098254 -28.73767083202229,-64.6903178098254 -29.207287705498977,-64.6903178098254 -29.676904578975662,-64.6903178098254 -29.9586747030617,-64.6903178098254 -30.240444827147712,-64.6903178098254 -30.803985075319737,-64.6903178098254 -31.085755199405774,-64.6903178098254 -31.367525323491787,-64.59639443513005 -31.6492954475778,-64.59639443513005 -32.11891232105451,-64.59639443513005 -32.400682445140525,-64.59639443513005 -32.77637594392188,-64.59639443513005 -33.15206944270325,-64.59639443513005 -34.56092006313334,-64.032854186958 -35.312307060696064,-63.84500743756733 -36.1576174329541,-63.563237313481324 -36.90900443051682,-63.28146718939531 -39.069242048509636,-62.53008019183258 -40.290245919549044,-62.15438669305124 -40.57201604363506,-61.966539943660536 -40.8537861677211,-61.8726165689652 -41.22947966650244,-61.77869319426986 -41.51124979058846,-61.68476981957452 -41.98086666406517,-61.49692307018385 -42.262636788151184,-61.40299969548851 -43.389717284495255,-61.02730619670716 -43.76541078327661,-60.93338282201182 -44.14110428205798,-60.74553607262112 -44.51679778083933,-60.651612697925785 -45.08033802901138,-60.46376594853511 -45.45603152779273,-60.369842573839776 -46.67703539883214,-59.90022570036309 -46.958805522918155,-59.80630232566772 -47.33449902169953,-59.712378950972386 -47.89803926987155,-59.524532201581714 -48.36765614334826,-59.336685452191034 -49.400813264997005,-58.96099195340969 -49.96435351316903,-58.77314520401901 -50.24612363725504,-58.67922182932365 -50.62181713603641,-58.58529845462831 -51.279280758903774,-58.3035283305423 -51.84282100707583,-58.11568158115163 -52.21851450585718,-58.02175820645628 -53.53344175159192,-57.55214133297957 -54.660522247936015,-57.17644783419822 -56.25721961775679,-56.6129075860262 -58.980997483921634,-55.6736738390728 -59.26276760800765,-55.57975046437746 -59.54453773209367,-55.39190371498676 -60.01415460557037,-55.20405696559609 -60.38984810435172,-55.016210216205415 -60.671618228437744,-54.92228684151008 -60.95338835252376,-54.7344400921194 -61.32908185130512,-54.54659334272873 -61.89262209947716,-54.358746593338026 -62.550085722344534,-53.983053094556674 -63.58324284399327,-53.51343622107999 -64.14678309216531,-53.32558947168931 -64.42855321625133,-53.13774272229861 -65.08601683911871,-52.8559725982126 -65.74348046198608,-52.57420247412659 -66.21309733546278,-52.29243235004058 -66.4948674595488,-52.19850897534521 -66.9644843330255,-51.916738851259204 -67.43410120650219,-51.728892101868524 -67.71587133058821,-51.63496872717319 -68.09156482936957,-51.447121977782516 -68.46725832815093,-51.25927522839184 -69.21864532571365,-50.789658354915126 -69.7821855738857,-50.50788823082912 -70.15787907266704,-50.2261181067431 -70.43964919675307,-50.132194732047765 -70.72141932083908,-49.944347982657064 -71.0031894449251,-49.75650123326639 -71.75457644248782,-49.38080773448504 -72.13026994126918,-49.09903761039903 -73.44519718700393,-48.347650612836304 -73.82089068578529,-48.15980386344563 -74.29050755926198,-47.878033739359616 -74.66620105804336,-47.690186989968915 -75.0418945568247,-47.50234024057824 -75.32366468091072,-47.31449349118757 -75.60543480499673,-47.12664674179689 -76.26289842786413,-46.750953243015516 -76.54466855195014,-46.56310649362484 -77.01428542542683,-46.28133636953883 -77.3899789242082,-46.093489620148155 -77.76567242298955,-45.90564287075748 -78.61098279524761,-45.34210262258543 -79.08059966872432,-45.15425587319476 -80.11375679037305,-44.5907156250227 -80.39552691445905,-44.40286887563203 -81.24083728671712,-43.839328627460006 -81.61653078549847,-43.65148187806933 -81.99222428427983,-43.46363512867863 -82.3679177830612,-43.18186500459262 -82.93145803123323,-42.90009488050661 -83.21322815531924,-42.712248131115935 -83.49499827940527,-42.6183247564206 -83.87069177818664,-42.33655463233456 -84.24638527696798,-42.14870788294388 -84.52815540105401,-41.96086113355321 -85.27954239861673,-41.58516763477186 -85.84308264678876,-41.20947413599048 -86.31269952026545,-40.927704011904474 -86.68839301904681,-40.739857262513794 -87.3458566419142,-40.36416376373245 -88.0972436394769,-39.89454689025573 -88.37901376356294,-39.800623515560396 -89.0364773864303,-39.33100664208371 -90.16355788277438,-38.57961964452098 -91.29063837911845,-37.9221560216536 -92.04202537668118,-37.45253914817691 -92.41771887546253,-37.07684564939556 -92.98125912363457,-36.79507552530952 -93.2630292477206,-36.60722877591885 -93.5447993718066,-36.419382026528176 -94.67187986815068,-35.66799502896545 -94.9536499922367,-35.48014827957478 -96.45642398736214,-34.54091453262137 -97.30173435962018,-33.97737428444935 -98.24096810657359,-33.319910661581964 -98.5227382306596,-33.22598728688663 -99.55589535230834,-32.4746002893239 -100.11943560048037,-32.09890679054255 -100.49512909926173,-31.817136666456538 -102.37359659316854,-30.408286046026426 -104.06421733768465,-29.28120554968235 -105.3791445834194,-28.341971802728978 -105.75483808220076,-28.06020167864294 -106.41230170506813,-27.590584805166255 -107.16368870263085,-27.027044556994205 -107.53938220141221,-26.745274432908193 -108.0089990748889,-26.36958093412684 -108.76038607245162,-25.89996406065013 -109.51177307001434,-25.336423812478106 -110.3570834422724,-24.772883564306056 -110.73277694105376,-24.491113440220044 -111.7659340627025,-23.551879693266642 -112.32947431087453,-23.082262819789957 -112.9869379337419,-22.518722571617907 -114.02009505539064,-21.579488824664505 -115.05325217703938,-20.73417845240647 -115.89856254929744,-20.17063820423442 -116.2742560480788,-19.88886808014841 -116.64994954686017,-19.513174581367032 -116.93171967094618,-19.23140445728102 -117.77703004320422,-18.29217071032762 -118.05880016729026,-18.01040058624161 -118.4344936660716,-17.63470708746026 -118.81018716485295,-17.259013588678883 -119.09195728893899,-16.97724346459287 -119.27980403832966,-16.695473340506858 -119.74942091180635,-16.319779841725484 -119.93726766119705,-16.038009717639472 -120.3129611599784,-15.662316218858123 -120.68865465875975,-15.286622720076773 -120.97042478284578,-14.910929221295397 -121.2521949069318,-14.723082471904723 -121.62788840571315,-14.347388973123374 -121.90965852979916,-14.065618849037335 -122.28535202858052,-13.596001975560648 -122.66104552736189,-13.2203084767793 -123.03673902614324,-12.844614977997924 -123.41243252492461,-12.468921479216574 -123.78812602370596,-11.999304605739887 -124.06989614779198,-11.71753448165385 -124.44558964657335,-11.247917608177163 -124.8212831453547,-10.77830073470045 -125.19697664413604,-10.4026072359191 -125.47874676822208,-9.932990362442414 -125.85444026700344,-9.557296863661039 -126.13621039108945,-9.275526739575026 -126.32405714048012,-8.993756615489014 -126.6997506392615,-8.618063116707638 -127.16936751273819,-8.054522868535614 -127.35721426212886,-7.772752744449602 -127.63898438621487,-7.490982620363565 -127.92075451030091,-7.115289121582215 -128.20252463438692,-6.6456722481055275 -128.3903713837776,-6.36390212401949 -128.5782181331683,-6.082131999933478 -128.85998825725432,-5.612515126456791 -129.047835006645,-5.236821627675416 -129.23568175603566,-4.861128128894066 -129.51745188012168,-4.485434630112716 -129.7992220042077,-4.015817756636004 -129.98706875359838,-3.734047632549992 -130.2688388776844,-3.2644307590732793 -130.64453237646575,-2.6069671362059172 -130.83237912585645,-2.3251970121199053 -131.2080726246378,-1.8555801386431927 -131.30199599933314,-1.5738100145571805 -131.7716128728098,-0.9163463916897933 -131.95945962220048,-0.5406528929084435 -132.14730637159118,0.6803509781309682 -132.24122974628654,1.243891226303018 -132.24122974628654,1.90135484917038 -132.4290764956772,3.122358720209792 -132.52299987037253,3.498052218991167 -132.52299987037253,3.779822343077179 -132.52299987037253,4.155515841858529 -132.71084661976323,5.470443087593303 -132.80476999445855,5.846136586374653 -132.80476999445855,6.221830085156003 -132.8986933691539,7.067140457414065 -132.8986933691539,7.348910581500077 -132.8986933691539,7.724604080281452 -132.8986933691539,8.100297579062802 -132.99261674384923,8.757761201930188 -132.99261674384923,9.039531326016201 -132.99261674384923,9.415224824797551 -132.99261674384923,9.884841698274263 -132.99261674384923,11.387615693399688 -132.99261674384923,12.514696189743761 -132.99261674384923,13.5478533113925 -132.99261674384923,13.923546810173848 -132.99261674384923,14.299240308955223 -132.99261674384923,14.674933807736574 -133.18046349323993,17.210864924510734 -133.18046349323993,18.713638919636182 -133.27438686793528,19.840719415980256 -133.27438686793528,20.96779991232433 -133.0865401185446,22.28272715805908 -132.99261674384923,23.128037530317144 -132.99261674384923,23.409807654403156 -132.8986933691539,24.44296477605189 -132.80476999445855,25.00650502422394 -132.71084661976323,25.288275148309953 -132.61692324506788,25.851815396481978 -132.61692324506788,26.133585520568015 -132.4290764956772,26.978895892826053 -132.33515312098186,27.448512766302766 -132.24122974628654,28.481669887951504 -132.14730637159118,28.95128676142819 -132.05338299689586,29.60875038429558 -131.95945962220048,30.078367257772264 -131.8655362475052,30.547984131248977 -131.7716128728098,30.82975425533499 -131.6776894981145,31.393294503507015 -131.6776894981145,31.76898800228839 -131.58376612341914,32.426451625155764 -131.30199599933314,34.21099574436721 -131.02022587524712,35.52592299010196 -130.36276225237972,39.470704727306234 -130.08099212829373,40.69170859834565 -129.98706875359838,41.06740209712701 -129.42352850542633,43.22763971511982 -128.48429475847294,46.98457470293341 -128.29644800908227,47.829885075191456 -128.1086012596916,48.48734869805883 -128.01467788499625,48.769118822144854 -127.92075451030091,49.33265907031689 -127.73290776091024,49.99012269318427 -127.07544413804284,52.05643693648174 -125.94836364169878,55.249831676123286 -122.66104552736189,61.9183912794924 -121.2521949069318,65.58140289261064 -121.0643481575411,65.957096391392 -120.03119103589236,67.64771713590812 -119.84334428650169,67.92948725999413 -117.02564304564152,71.40465212372169 -116.74387292155548,71.78034562250305 -116.18033267338345,72.53173262006578 -115.99248592399277,72.81350274415179 -115.33502230112539,73.65881311640986 -114.39578855417199,74.69197023805859 -113.55047818191396,75.81905073440267 -112.42339768556987,77.32182472952809 -110.07531331818637,80.32737271977896 -108.29076919897491,82.5815337124671 -107.91507570019357,82.95722721124848 -107.44545882671687,83.52076745942051 -106.69407182915415,84.36607783167855 -106.50622507976347,84.74177133045993 -105.75483808220076,85.49315832802263 -105.56699133281008,85.77492845210865 -103.9702939629893,87.55947257132011 -102.65536671725455,89.15616994114089 -102.0918264690825,89.81363356400826 -101.62220959560581,90.28325043748495 -101.43436284621514,90.56502056157098 -101.15259272212911,90.94071406035233 -100.8708225980431,91.22248418443836 -100.21335897517572,91.97387118200106 -99.461971977613,92.7252581795638 -99.18020185352698,93.10095167834514 -98.61666160535495,93.57056855182185 -98.24096810657359,93.85233867590787 -98.05312135718292,94.13410879999388 -97.58350448370621,94.50980229877524 -97.20781098492485,94.8854957975566 -96.92604086083884,95.26118929633796 -96.55034736205748,95.54295942042398 -96.08073048858078,96.01257629390068 -95.61111361510407,96.48219316737736 -94.85972661754137,97.2335801649401 -94.39010974406466,97.60927366372144 -93.82656949589263,98.17281391189348 -93.5447993718066,98.36066066128416 -92.79341237424389,99.20597103354223 -92.22987212607185,99.76951128171424 -91.8541786272905,100.05128140580028 -90.35140463216506,101.55405540092572 -88.75470726234428,103.05682939605114 -85.84308264678876,105.87453063691133 -85.4673891480074,106.25022413569269 -85.18561902392138,106.53199425977871 -84.71600215044468,107.00161113325541 -81.89830090958449,109.72538899942026 -81.33476066141246,110.28892924759229 -81.05299053732644,110.5706993716783 -80.11375679037305,111.2281629945457 -78.70490616994294,112.16739674149909 -78.14136592177091,112.54309024028045 -77.67174904829422,112.82486036436646 -77.10820880012217,113.20055386314783 -75.69935817969207,114.04586423540589 -75.13581793152004,114.51548110888258 -71.09711281962043,117.05141222565675 -62.4561623476492,122.59289133268177 -58.980997483921634,124.2835120771979 -56.163296243061446,125.50451594823731 -54.84836899732669,126.1619795711047 -54.56659887324067,126.25590294580003 -54.19090537445931,126.44374969519072 -53.90913525037329,126.53767306988605 -53.34559500220125,126.81944319397206 -52.9699015034199,127.00728994336274 -52.68813137933389,127.19513669275344 -52.40636125524785,127.28906006744877 -51.84282100707583,127.47690681683945 -51.56105088298981,127.66475356623012 -50.997510634817765,127.94652369031614 -50.43397038664571,128.22829381440218 -49.87043013847369,128.41614056379285 -49.400813264997005,128.60398731318352 -48.83727301682495,128.88575743726955 -48.55550289273894,128.97968081196487 -48.085886019262226,129.26145093605092 -47.80411589517622,129.35537431074624 -47.5223457710902,129.54322106013691 -46.86488214822282,129.82499118422294 -46.113495150660114,130.20068468300428 -45.643878277183404,130.38853143239496 -45.26818477840205,130.48245480709033 -44.986414654316015,130.48245480709033 -44.51679778083933,130.57637818178566 -43.48364065919059,130.76422493117633 -41.41732641589312,131.13991842995767 -40.19632254485371,131.32776517934835 -39.53885892198632,131.51561192873905 -39.25708879790031,131.51561192873905 -38.41177842564225,131.70345867812972 -38.13000830155623,131.70345867812972 -37.47254467868887,131.79738205282507 -37.096851179907496,131.89130542752042 -36.62723430643081,131.98522880221574 -34.84269018721935,132.26699892630177 -33.90345644026595,132.45484567569244 -33.527762941484596,132.5487690503878 -33.24599281739859,132.5487690503878 -32.96422269331255,132.64269242508314 -32.30675907044519,132.64269242508314 -31.837142196968475,132.5487690503878 -31.461448698187127,132.45484567569244 -30.897908450015102,132.3609223009971 -30.616138325929064,132.3609223009971 -30.240444827147712,132.26699892630177 -28.643747457326928,132.0791521769111 -28.17413058385024,131.98522880221574 -27.79843708506889,131.89130542752042 -27.1409734622015,131.79738205282507 -26.85920333811549,131.70345867812972 -26.483509839334115,131.70345867812972 -26.201739715248102,131.6095353034344 -25.91996959116209,131.6095353034344 -25.638199467076078,131.51561192873905 -25.35642934299004,131.4216885540437 -24.69896572012268,131.13991842995767 -24.417195596036667,130.952071680567 -24.041502097255293,130.85814830587168 -23.290115099692592,130.57637818178566 -23.008344975606555,130.48245480709033 -22.632651476825206,130.29460805769963 -22.350881352739194,130.20068468300428 -21.50557098048113,129.82499118422294 -21.12987748169978,129.63714443483227 -20.848107357613742,129.54322106013691 -20.56633723352773,129.4492976854416 -19.62710348657433,129.07360418666022 -18.96963986370697,128.7918340625742 -18.500022990230256,128.60398731318352 -17.84255936736287,128.41614056379285 -17.372942493886182,128.22829381440218 -17.09117236980017,128.04044706501148 -16.62155549632346,127.8526003156208 -15.870168498760759,127.57083019153478 -15.400551625284047,127.38298344214411 -15.118781501198034,127.28906006744877 -14.367394503635309,127.00728994336274 -13.897777630158622,126.81944319397206 -13.334237381986572,126.63159644458139 -13.05246725790056,126.44374969519072 -12.488927009728535,126.25590294580003 -12.019310136251823,126.06805619640933 -11.73754001216581,125.97413282171402 -11.361846513384462,125.78628607232332 -10.5165361411264,125.50451594823731 -10.046919267649686,125.31666919884664 -9.765149143563674,125.2227458241513 -9.389455644782325,125.03489907476063 -8.825915396610275,124.84705232536993 -8.450221897828925,124.7531289506746 -8.168451773742913,124.65920557597924 -7.135294652094176,124.47135882658857 -6.7596011533128015,124.37743545189323 -6.477831029226789,124.2835120771979 -6.196060905140777,124.2835120771979 -5.726444031664064,124.18958870250256 -5.444673907578052,124.18958870250256 -4.975057034101365,124.2835120771979 -4.5993635353199895,124.37743545189323 -4.129746661843303,124.5652822012839 -3.66012978836659,124.65920557597924 -3.378359664280578,124.65920557597924 -3.002666165499228,124.84705232536993 -2.6269726667178532,124.84705232536993 -2.3452025426318412,124.94097570006528 -1.9695090438504914,125.03489907476063 -1.687738919764479,125.12882244945597 -1.2181220462877667,125.2227458241513 -0.5606584234204047,125.41059257354198 0.19072857414231997,125.59843932293265 0.5664220729236696,125.59843932293265 0.9421155717050446,125.69236269762798 1.2238856957910569,125.78628607232332 1.5995791945724067,125.88020944701866 2.069196068049119,125.97413282171402 2.3509661921351315,126.06805619640933 2.8205830656118436,126.1619795711047 3.102353189697856,126.25590294580003 3.4780466884792056,126.34982632049537 3.8537401872605552,126.44374969519072 4.323357060737267,126.53767306988605 4.60512718482328,126.53767306988605 4.980820683604655,126.72551981927673 5.450437557081342,126.81944319397206 5.732207681167354,126.9133665686674 6.10790117994873,127.00728994336274 6.483594678730079,127.10121331805807 6.765364802816091,127.19513669275344 7.141058301597441,127.28906006744877 7.516751800378816,127.38298344214411 7.8924452991601655,127.47690681683945 8.174215423246178,127.57083019153478 8.64383229672289,127.66475356623012 9.395219294285615,127.8526003156208 9.770912793066964,127.94652369031614 10.052682917152977,127.94652369031614 10.334453041238989,127.94652369031614 10.804069914715702,128.04044706501148 11.179763413497051,128.04044706501148 11.649380286973763,128.41614056379285 12.212920535145788,128.22829381440218 12.682537408622501,128.3222171890975 13.152154282099188,128.3222171890975 14.561004902529275,128.51006393848817 15.312391900091999,128.60398731318352 15.782008773568686,128.69791068787885 16.15770227235006,128.69791068787885 16.53339577113141,128.7918340625742 17.003012644608123,128.88575743726955 17.378706143389472,128.88575743726955 17.754399642170824,128.97968081196487 18.130093140952198,129.07360418666022 18.41186326503821,129.16752756135554 18.881480138514895,129.35537431074624 19.163250262600936,129.4492976854416 19.445020386686945,129.54322106013691 19.726790510772958,129.63714443483227 20.290330758945007,129.82499118422294 20.759947632421696,129.91891455891826 21.04171775650771,130.0128379336136 21.323487880593746,130.10676130830893 21.699181379375094,130.29460805769963 22.45056837693782,130.57637818178566 23.859418997367907,130.952071680567 24.422959245539932,131.13991842995767 25.550039741884007,131.51561192873905 25.92573324066538,131.70345867812972 26.95889036231412,131.89130542752042 27.80420073457218,132.0791521769111 28.555587732134878,132.26699892630177 28.931281230916255,132.26699892630177 29.306974729697604,132.3609223009971 30.05836172726033,132.3609223009971 30.43405522604168,132.45484567569244 33.627449965683226,132.8305391744738 33.90922008976924,132.8305391744738 34.28491358855059,132.8305391744738 34.66060708733196,132.92446254916914 35.03630058611331,132.92446254916914 35.31807071019932,133.01838592386449 35.6937642089807,133.01838592386449 36.163381082457384,133.01838592386449 36.539074581238765,133.1123092985598 37.666155077582836,133.20623267325516 38.51146544984088,133.3001560479505 38.793235573926914,133.39407942264583 39.35677582209894,133.39407942264583 39.732469320880284,133.48800279734118 40.48385631844301,133.5819261720365 40.95347319191972,133.5819261720365 41.42309006539641,133.5819261720365 41.98663031356846,133.67584954673188 42.831940685826495,133.7697729214272 43.39548093399855,133.7697729214272 44.616484805037956,133.95761967081788 45.36787180260068,133.86369629612255 47.24633929650746,133.7697729214272 49.594423663890964,133.5819261720365 50.06404053736765,133.48800279734118 50.34581066145367,133.48800279734118 51.378967783102404,133.39407942264583 51.94250803127446,133.39407942264583 53.44528202639988,133.3001560479505 55.32374952030668,133.1123092985598 59.55030138159696,132.73661579977846 60.20776500446435,132.73661579977846 60.95915200202705,132.64269242508314 61.240922126113084,132.5487690503878 61.616615624894436,132.5487690503878 65.93709086088006,132.17307555160642 66.59455448374744,132.0791521769111 67.06417135722411,132.0791521769111 67.7216349800915,131.98522880221574 68.56694535234956,131.89130542752042 68.94263885113091,131.89130542752042 70.351489471561,131.70345867812972 72.22995696546779,131.89130542752042 72.79349721363981,131.98522880221574 73.16919071242121,131.98522880221574 80.30736718926701,132.73661579977846 81.05875418682972,132.8305391744738 83.03114505543188,132.64269242508314 86.41238654446407,132.3609223009971 88.38477741306623,132.17307555160642 89.2300877853243,131.98522880221574 90.26324490697299,131.70345867812972 90.7328617804497,131.51561192873905 93.26879289722388,130.670301556481 94.11410326948194,130.38853143239496 97.49534475851414,129.16752756135554 98.15280838138153,128.97968081196487 99.93735250059297,128.3222171890975 100.9705096222417,127.57083019153478 102.00366674389043,126.81944319397206 102.75505374145318,125.97413282171402 105.38490823292268,123.3442783302445 106.04237185579008,122.78073808207245 106.23021860518075,122.49896795798644 106.51198872926673,122.21719783390043 106.79375885335277,121.74758096042373 107.16945235213413,121.37188746164236 107.54514585091547,120.90227058816568 107.7329926003062,120.62050046407967 107.92083934969688,120.2448069652983 108.20260947378286,119.96303684121227 108.39045622317353,119.68126671712626 108.9539964713456,118.92987971956354 109.51753671951764,118.17849272200081 109.79930684360362,117.8967225979148 110.08107696768965,117.52102909913346 110.36284709177569,117.14533560035208 110.64461721586169,116.76964210157072 110.83246396525236,116.39394860278938 111.1142340893384,116.018255104008 111.5838509628151,114.89117460766393 111.67777433751041,114.51548110888258 111.8656210869011,114.04586423540589 112.14739121098714,113.29447723784317 112.2413145856825,112.91878373906181 112.52308470976848,112.16739674149909 113.0866249579405,110.85246949576434 113.36839508202654,110.00715912350628 113.55624183141722,109.53754225002957 113.65016520611258,109.06792537655288 113.83801195550326,108.59830850307618 114.11978207958924,107.94084488020881 115.15293920123798,105.12314363934861 115.3407859506287,104.55960339117658 115.6225560747147,103.80821639361386 115.71647944941006,103.52644626952785 115.81040282410537,103.24467614544183 116.37394307227744,101.83582552501173 116.56178982166811,101.36620865153503 116.65571319636344,101.08443852744901 117.03140669514478,99.58166453232357 117.12533006984015,99.29989440823756 117.12533006984015,99.01812428415155 117.31317681923082,98.64243078537018 117.40710019392613,98.07889053719815 117.59494694331686,97.42142691433077 117.68887031801216,97.04573341554942 117.78279369270753,96.67003991676805 " 
stroke="crimson" 
stroke-width="1" 
fill="none"
id="line0" />

</g>
</g>
<g
inkscape:label="Slice 2"
inkscape:groupmode="layer" 
id="layer2" 
><g
id="g372">
  <polyline points="4.980820683604655,90.846790685657 4.699050559518618,91.12856080974302 4.417280435432605,91.41033093382904 3.8537401872605552,91.97387118200106 3.6658934378698804,92.2556413060871 3.384123313783868,92.44348805547777 2.726659690916481,93.10095167834514 2.5388129415258063,93.38272180243116 2.257042817439794,93.57056855182185 2.069196068049119,93.85233867590787 1.7874259439631066,94.13410879999388 1.9752726933537816,94.4158789240799 2.069196068049119,94.69764904816593 2.257042817439794,94.97941917225194 2.4448895668304687,95.44903604572863 2.5388129415258063,95.73080616981467 2.8205830656118436,96.29434641798669 3.0084298150025184,96.85788666615873 3.290199939088531,97.32750353963543 3.5719700631745432,97.5153502890261 3.947663561955918,97.60927366372144 4.417280435432605,97.89104378780746 4.886897308909292,98.07889053719815 5.262590807690668,98.17281391189348 5.544360931776679,98.36066066128416 6.013977805253367,98.54850741067484 6.295747929339404,98.64243078537018 6.5775180534254165,98.73635416006553 6.859288177511429,98.9242009094562 7.141058301597441,99.01812428415155 7.422828425683479,99.11204765884689 7.798521924464828,99.29989440823756 8.08029204855084,99.3938177829329 8.549908922027553,98.9242009094562 8.831679046113566,98.54850741067484 9.113449170199578,98.17281391189348 9.301295919590252,97.89104378780746 9.676989418371628,97.5153502890261 10.052682917152977,97.04573341554942 10.240529666543653,96.76396329146338 10.428376415934352,96.48219316737736 10.710146540020364,96.20042304329135 11.179763413497051,95.63688279511932 11.461533537583064,95.16726592164261 11.743303661669101,94.8854957975566 12.025073785755113,94.69764904816593 12.306843909841126,94.32195554938455 12.682537408622501,93.66449192651719 13.05823090740385,93.19487505304048 12.964307532708514,92.91310492895447 12.4946906592318,92.7252581795638 11.837227036364439,92.44348805547777 11.555456912278427,92.44348805547777 11.085840038801713,92.34956468078244 10.52229979062969,92.16171793139175 10.052682917152977,91.97387118200106 9.770912793066964,91.97387118200106 9.113449170199578,91.78602443261039 8.831679046113566,91.69210105791505 8.174215423246178,91.50425430852438 7.704598549769491,91.41033093382904 7.422828425683479,91.3164075591337 6.859288177511429,91.22248418443836 6.483594678730079,91.03463743504767 6.10790117994873,90.94071406035233 5.8261310558626915,90.94071406035233 5.356514182386005,90.75286731096166 4.980820683604655,90.846790685657 " 
stroke="gray" 
stroke-width="1" 
fill="none"
id="line1" />

</g>
</g>
<g
inkscape:label="Slice 3"
inkscape:groupmode="layer" 
id="layer3" 
></g>
</svg>