<?xml version="1.0" encoding="UTF-8" ?>
<svg    xmlns:dc="http://purl.org/dc/elements/1.1/" xmlns:cc="http://creativecommons.org/ns#" xmlns:rdf="http://www.w3.org/1999/02/22-rdf-syntax-ns#" xmlns:svg="http://www.w3.org/2000/svg" xmlns="http://www.w3.org/2000/svg" xmlns:sodipodi="http://sodipodi.sourceforge.net/DTD/sodipodi-0.dtd" xmlns:inkscape="http://www.inkscape.org/namespaces/inkscape" version="1.1" viewBox="-133.28764471202376 -59.466667779982174 254.44295037603752 191.7960118364828" id="svg2" width="71.80945663924619mm"
 height="54.12909799700754mm">
 <defs  
  id="defs4" /> 
 <sodipodi:namedview 
  id="base" 
  pagecolor="#ffffff" 
  bordercolor="#666666" 
  borderopacity="1.0" 
 inkscape:pageopacity="0.0" 
 inkscape:pageshadow="2" 
  inkscape:document-units="mm" 
  inkscape:current-layer="layer1" 
 showgrid="false" 
  />
<g
inkscape:label="Slice 1"
inkscape:groupmode="layer" 
id="layer1" 
><g
id="g371">
  <polyline points="117.97476878431328,96.28325941989532 117.97476878431328,95.99411970355891 118.1675285952042,95.03032064910423 118.26390850064968,94.74118093276782 118.26390850064968,94.4520412164314 118.64942812243153,92.23530339118564 118.84218793332246,91.27150433673094 118.93856783876794,90.88598471494906 119.0349477442134,90.40408518772172 119.0349477442134,89.92218566049438 119.22770755510437,89.15114641693063 119.32408746054985,88.57286698425781 119.32408746054985,88.2837272679214 119.42046736599531,87.99458755158501 119.51684727144078,86.93440859168486 120.09512670411357,81.92265350852047 120.19150660955904,81.44075398129313 120.2878865150045,80.86247454862031 120.67340613678637,77.10365823624703 120.9625458531228,74.98330031644673 120.9625458531228,74.59778069466485 121.05892575856828,73.92312135654657 121.15530566401374,72.76656249120094 121.15530566401374,72.2846629639736 121.05892575856828,71.70638353130079 121.05892575856828,71.32086390951892 121.05892575856828,70.93534428773704 120.9625458531228,70.26068494961876 120.86616594767735,69.77878542239142 120.86616594767735,69.48964570605501 120.86616594767735,69.10412608427313 120.76978604223187,68.62222655704579 120.76978604223187,68.14032702981844 120.76978604223187,67.75480740803657 120.67340613678637,67.36928778625469 120.67340613678637,66.98376816447282 120.67340613678637,66.69462844813641 120.5770262313409,66.4054887318 120.5770262313409,66.1163490154636 120.5770262313409,65.73082939368173 120.48064632589544,65.24892986645439 120.48064632589544,64.86341024467251 120.48064632589544,64.5742705283361 120.48064632589544,64.2851308119997 120.48064632589544,63.995991095663285 120.38426642044996,63.70685137932688 120.38426642044996,62.83943223031766 120.38426642044996,62.45391260853579 120.38426642044996,62.16477289219938 120.2878865150045,61.68287336497204 120.2878865150045,60.91183412140829 120.2878865150045,60.33355468873547 120.2878865150045,60.044414972399075 120.2878865150045,59.6588953506172 120.19150660955904,58.88785610705345 120.19150660955904,58.30957667438064 120.19150660955904,57.827677147153295 120.09512670411357,57.34577761992594 120.09512670411357,56.18921875458032 120.09512670411357,55.90007903824392 120.09512670411357,55.41817951101657 119.99874679866811,55.129039794680175 119.99874679866811,54.83990007834376 119.99874679866811,54.454380456561886 119.99874679866811,54.16524074022548 119.99874679866811,53.779721118443604 119.99874679866811,53.490581402107196 119.90236689322263,52.91230196943439 119.90236689322263,52.62316225309798 119.90236689322263,51.46660338775236 119.80598698777717,49.92452490062486 119.80598698777717,49.34624546795204 119.80598698777717,48.76796603527924 119.7096070823317,48.189686602606415 119.61322717688624,47.51502726448813 119.51684727144078,45.972948777360635 119.42046736599531,45.58742915557876 119.42046736599531,45.201909533796886 119.42046736599531,44.81638991201501 119.32408746054985,44.527250195678604 119.22770755510437,43.852590857560315 119.22770755510437,43.46707123577844 119.13132764965886,42.98517170855111 119.0349477442134,42.503272181323766 118.93856783876794,41.92499274865094 118.93856783876794,41.635853032314536 118.84218793332246,40.96119369419627 118.745808027877,40.382914261523446 118.64942812243153,39.99739463974157 118.55304821698607,39.708254923405164 118.55304821698607,39.32273530162329 118.45666831154061,39.03359558528688 118.45666831154061,38.74445586895048 118.36028840609514,38.35893624716861 118.36028840609514,38.0697965308322 118.26390850064968,37.29875728726845 118.1675285952042,36.720477854595636 118.07114868975874,36.14219842192283 117.97476878431328,35.85305870558642 117.97476878431328,35.56391898925001 117.87838887886781,34.889259651131724 117.78200897342235,34.214600313013456 117.68562906797683,33.636320880340634 117.58924916253136,33.25080125855876 117.4928692570859,32.96166154222235 117.4928692570859,32.672521825885944 117.39648935164044,32.28700220410407 117.39648935164044,31.901482582322195 117.30010944619497,31.51596296054032 117.2037295407495,31.03406343331298 117.2037295407495,30.648543811531106 117.10734963530403,30.35940409519471 117.01096972985857,29.973884473412824 116.91458982441311,29.395605040740005 116.72183001352218,29.01008541895814 116.52907020263125,28.52818589173079 116.43269029718579,28.14266626994893 116.33631039174031,27.853526553612507 116.14355058084934,27.082487310048755 116.04717067540386,26.696967688266895 115.85441086451294,26.215068161039543 115.75803095906747,25.733168633812188 115.56527114817654,25.347649012030327 115.46889124273108,24.96212939024844 115.37251133728562,24.672989673912046 115.08337162094921,23.901950430348293 114.89061181005829,23.130911186784544 114.79423190461281,22.841771470448148 114.6978519991673,22.552631754111726 114.60147209372184,22.0707322268844 114.4087122828309,21.781592510547977 114.4087122828309,21.49245279421158 114.21595247193997,21.106933172429695 114.11957256649451,20.8177934560933 114.02319266104904,20.335893928865946 113.8304328501581,19.85399440163862 113.73405294471264,19.564854685302198 113.63767303926718,19.179335063520334 113.54129313382171,18.890195347183912 113.44491322837625,18.601055630847515 113.25215341748532,18.31191591451112 113.1557735120398,17.926396292729233 113.05939360659434,17.637256576392836 112.96301370114887,17.348116860056415 112.86663379570341,17.058977143720018 112.67387398481247,16.4806977110472 112.48111417392154,15.902418278374382 112.48111417392154,15.613278562037985 112.19197445758515,15.034999129365167 111.90283474124875,14.263959885801418 111.6136950249123,13.782060358574066 110.93903568679404,12.239981871446567 109.20419738877561,8.384785653627821 109.01143757788469,8.095645937291426 108.43315814521185,6.842707166500324 108.14401842887544,6.071667922936575 107.95125861798452,5.782528206600178 107.75849880709359,5.397008584818291 107.2765992798662,4.1440698140272145 106.89107965808435,3.469410475908931 106.60193994174794,2.8911310432361126 106.12004041452062,1.7345721778904764 105.63814088729325,0.5780133125448652 104.77072173828405,-1.0604450800280985 104.67434183283859,-1.3495847963645202 104.48158202194766,-1.8314843235918477 103.71054277838388,-3.566322621610302 103.22864325115656,-4.626501581510448 102.74674372392917,-5.6866805414106185 102.55398391303825,-6.0722001631924805 102.36122410214732,-6.3613398795288765 101.87932457491999,-7.132379123092651 101.20466523680167,-8.385317893883729 100.81914561501982,-9.05997723200201 99.95172646601063,-10.60205571912951 98.21688816799215,-13.686212693384507 97.54222882987389,-14.55363184239372 97.06032930264656,-15.324671085957469 96.77118958631011,-15.710190707739356 96.67480968086466,-15.999330424075753 96.38566996452825,-16.288470140412176 96.28929005908279,-16.57760985674857 95.03635128829168,-18.216068249321534 93.49427280116419,-20.625565885458272 93.30151299027325,-20.91470560179467 91.3739148813639,-23.70972285971327 90.79563544869106,-24.577142008722483 90.1209761105728,-25.251801346840768 89.63907658334547,-25.733700874068095 89.25355696156356,-26.215600401295447 88.77165743433623,-26.601120023077335 88.38613781255437,-27.083019550304662 87.90423828532698,-27.564919077532014 87.61509856899059,-27.85405879386841 87.3259588526542,-28.04681860475934 87.0368191363178,-28.43233822654123 86.55491960909048,-28.91423775376858 85.88026027097216,-29.68527699733233 84.82008131107199,-30.552696146341546 83.95266216206281,-31.323735389905295 83.6635224457264,-31.516495200796225 83.27800282394449,-31.902014822578113 82.6997233912717,-32.383914349805444 82.31420376948984,-32.673054066141866 81.73592433681699,-33.25133349881465 80.8685051878078,-34.0223727423784 80.00108603879856,-34.79341198594218 79.42280660612577,-35.275311513169505 79.03728698434391,-35.56445122950593 77.30244868632543,-37.106529716633425 77.01330896998904,-37.29928952752436 76.53140944276171,-37.492049338415285 76.04950991553439,-37.106529716633425 74.89295105018874,-36.046350756733254 74.41105152296137,-35.660831134951394 73.73639218484311,-35.17893160772404 73.4472524685067,-34.889791891387645 72.96535294127933,-34.40789236416029 72.67621322494294,-34.21513255326936 72.38707350860653,-34.0223727423784 72.19431369771561,-33.73323302604201 71.61603426504281,-33.34771340426015 71.2305146432609,-33.15495359336919 70.74861511603358,-32.96219378247826 69.9775758724698,-32.28753444435998 68.82101700712421,-31.323735389905295 67.47169833088765,-30.263556430005124 66.50789927643294,-29.878036808223264 66.21875956009654,-29.781656902777797 65.83323993831469,-29.588897091886867 65.3513404110873,-29.39613728099591 64.86944088385998,-29.299757375550445 63.230982491287016,-28.62509803743216 62.556323153168705,-28.43233822654123 62.26718343683231,-28.335958321095763 61.88166381505045,-28.143198510204833 60.14682551703202,-27.564919077532014 53.40023213584918,-25.059041535949813 48.38847705268483,-23.227823332485915 47.90657752545747,-23.035063521594985 47.424677998230145,-23.227823332485915 46.942778471002796,-23.42058314337685 45.68983970021169,-23.516963048822312 45.4006999838753,-23.613342954267804 45.01518036209341,-23.613342954267804 44.147761213084195,-23.70972285971327 43.66586168585687,-23.806102765158734 37.11202811556499,-23.998862576049667 29.787155301709358,-24.28800229238606 28.341456720027324,-24.28800229238606 24.19712078587216,-24.48076210327702 23.811601164090295,-24.48076210327702 22.847802109635616,-24.48076210327702 14.655510146770771,-24.769901819613416 14.269990524988884,-24.769901819613416 13.017051754197782,-24.86628172505888 12.053252699743103,-24.86628172505888 10.89669383439749,-24.769901819613416 9.258235441824503,-23.70972285971327 1.9333626279688987,-18.794347681994353 -0.3797551027223739,-17.15588928942139 -7.993767632914399,-23.42058314337685 -12.041723661624076,-26.6974999285228 -13.198282526969713,-27.66129898297748 -15.415020352215494,-29.68527699733233 -15.800539973997356,-30.167176524559657 -16.186059595779245,-30.45631624089608 -21.486954395280023,-35.46807132406044 -21.77609411161642,-35.75721104039686 -23.125412787852984,-37.01014981118794 -23.703692220525802,-37.58842924386075 -24.378351558644088,-38.166708676533574 -25.342150613098767,-39.13050773098825 -25.920430045771585,-39.70878716366107 -26.209569762107982,-39.997926879997465 -26.691469289335334,-40.47982640722482 -28.81182720913565,-42.407424516134206 -30.835805223490475,-44.335022625043564 -32.28150380517251,-45.684341301280135 -34.88376125220018,-48.09383893741685 -39.70275652447361,-52.72007439879934 -41.43759482249206,-54.358532791372326 -43.26881302595595,-56.09337108939076 -45.967450378429085,-58.59924863097294 -46.35297000021095,-58.79200844186389 -46.44934990565641,-59.081148158200286 -47.22038914922016,-59.17752806364575 -47.702288676447516,-59.466667779982174 -47.99142839278391,-59.370287874536686 -48.473327920011265,-59.17752806364575 -50.40092602892065,-58.50286872552747 -51.750244705157215,-58.02096919830014 -52.13576432693908,-57.924589292854655 -52.7140437596119,-57.73182948196372 -53.09956338139376,-57.53906967107279 -53.58146290862111,-57.44268976562732 -53.870602624957506,-57.34630986018186 -54.256122246739395,-57.1535500492909 -54.83440167941222,-56.96079023839997 -55.990960544757826,-56.57527061661811 -57.24389931554893,-56.189750994836224 -59.17149742445829,-55.51509165671794 -59.84615676257657,-55.32233184582701 -60.13529647891299,-55.129572034936075 -60.42443619524939,-55.033192129490615 -60.90633572247674,-54.84043231859965 -61.67737496604049,-54.45491269681779 -63.026693642277046,-53.78025335869951 -63.31583335861345,-53.683873453254044 -63.60497307494986,-53.49111364236311 -64.08687260217721,-53.298353831472156 -64.85791184574096,-53.00921411513576 -65.82171090019564,-52.623694493353874 -66.30361042742298,-52.33455477701748 -66.68913004920486,-52.14179496612655 -67.07464967098673,-51.852655249790125 -67.36378938732314,-51.75627534434466 -67.74930900910502,-51.467135628008265 -68.03844872544143,-51.3707557225628 -68.42396834722331,-51.081616006226376 -68.71310806355972,-50.88885619533544 -69.09862768534158,-50.696096384444516 -69.48414730712346,-50.50333657355358 -70.06242673979627,-50.117816951771694 -70.35156645613267,-50.02143704632623 -70.83346598336001,-49.732297329989805 -71.12260569969642,-49.53953751909888 -71.70088513236924,-49.25039780276248 -72.08640475415112,-48.96125808642606 -72.37554447048751,-48.8648781809806 -72.85744399771487,-48.575738464644196 -73.33934352494221,-48.2865987483078 -73.82124305216955,-47.99745903197138 -74.3031425793969,-47.70831931563498 -74.68866220117877,-47.515559504744054 -75.17056172840611,-47.22641978840763 -75.55608135018798,-47.0336599775167 -75.94160097196986,-46.74452026118028 -76.32712059375174,-46.55176045028934 -76.80902012097907,-46.26262073395295 -77.09815983731549,-46.069860923062016 -77.3872995536519,-45.87710111217106 -78.25471870266111,-45.395201584943734 -78.54385841899752,-45.20244177405278 -78.83299813533392,-45.10606186860731 -79.2185177571158,-44.913302057716386 -79.60403737889767,-44.624162341379986 -80.08593690612501,-44.43140253048903 -80.4714565279069,-44.14226281415263 -80.7605962442433,-43.949503003261704 -81.04973596057971,-43.75674319237075 -81.53163548780705,-43.563983381479815 -81.82077520414346,-43.37122357058888 -82.10991492047987,-43.27484366514342 -82.68819435315267,-42.88932404336153 -82.97733406948909,-42.6965642324706 -83.45923359671642,-42.407424516134206 -83.74837331305284,-42.31104461068874 -84.03751302938925,-42.118284799797785 -85.48321161107127,-41.25086565078857 -85.96511113829861,-40.96172593445217 -86.44701066552595,-40.76896612356124 -86.73615038186236,-40.57620631267029 -87.12167000364424,-40.28706659633389 -87.79632934176252,-39.901546974552 -88.27822886898986,-39.70878716366107 -88.85650830166269,-39.32326754187921 -90.49496669423564,-38.3594684874245 -90.78410641057205,-38.166708676533574 -91.36238584324485,-37.87756896019717 -91.8442853704722,-37.492049338415285 -92.80808442492689,-36.817390000297 -94.6393026283908,-35.660831134951394 -95.02482225017268,-35.46807132406044 -95.69948158829095,-35.08255170227857 -97.14518016997299,-34.1187526478239 -97.4343198863094,-33.92599283693294 -98.39811894076408,-33.34771340426015 -99.45829790066423,-32.5766741606964 -100.42209695511893,-31.805634917132647 -101.57865582046455,-31.034595673568873 -104.1809132674922,-29.106997564659512 -104.56643288927408,-28.91423775376858 -105.14471232194688,-28.528718131986697 -106.10851137640158,-27.757678888422944 -106.39765109273799,-27.564919077532014 -107.07231043085628,-27.083019550304662 -107.74696976897455,-26.601120023077335 -108.22886929620189,-26.215600401295447 -108.61438891798377,-25.830080779513587 -108.90352863432017,-25.637320968622628 -111.12026645956595,-23.70972285971327 -112.18044541946611,-22.745923805258563 -112.85510475758439,-22.167644372585773 -113.1442444739208,-21.974884561694815 -113.72252390659362,-21.39660512902202 -114.39718324471188,-20.818325696349206 -115.93926173183938,-19.469007020112638 -117.19220050263048,-18.794347681994353 -117.67410002985783,-18.408828060212493 -118.05961965163972,-18.023308438430604 -118.34875936797611,-17.637788816648744 -118.63789908431251,-17.445029005757785 -118.92703880064893,-17.059509383975925 -119.40893832787626,-16.57760985674857 -119.98721776054907,-15.999330424075753 -120.27635747688548,-15.710190707739356 -120.5654971932219,-15.42105099140296 -120.95101681500378,-15.035531369621074 -121.14377662589472,-14.746391653284677 -121.43291634223111,-14.55363184239372 -121.7220560585675,-14.168112220611858 -122.01119577490392,-13.878972504275461 -122.30033549124032,-13.58983278793904 -122.58947520757674,-13.300693071602645 -122.87861492391315,-12.915173449820756 -123.16775464024954,-12.722413638929826 -123.36051445114049,-12.433273922593429 -123.6496541674769,-12.240514111702474 -124.13155369470424,-11.56585477358419 -124.61345322193158,-11.083955246356862 -124.99897284371346,-10.60205571912951 -125.28811256004985,-10.216536097347648 -125.86639199272267,-9.638256664674829 -126.0591518036136,-9.349116948338407 -126.34829151995002,-9.05997723200201 -126.54105133084096,-8.770837515665615 -126.92657095262284,-8.385317893883729 -127.3120905744047,-7.999798272101866 -127.40847047985017,-7.710658555765444 -127.69761019618657,-7.325138933983582 -127.89037000707752,-7.03599921764716 -128.08312981796846,-6.650479595865298 -128.27588962885937,-6.3613398795288765 -128.66140925064127,-5.6866805414106185 -128.95054896697766,-5.301160919628731 -129.1433087778686,-4.915641297846869 -129.33606858875956,-4.626501581510448 -129.72158821054143,-4.048222148837629 -129.91434802143237,-3.6627025270557674 -130.29986764321424,-3.1808029998284146 -130.49262745410516,-2.891663283492018 -130.78176717044155,-2.3133838508192004 -130.97452698133253,-2.024244134482804 -131.3600466031144,-1.4459647018099857 -131.55280641400535,-1.1568249854735893 -131.74556622489627,-0.771305363691702 -132.03470594123266,-0.38578574190981485 -132.03470594123266,0.09611378531751259 -132.2274657521236,1.5418123669995454 -132.2274657521236,1.9273319887814324 -132.32384565756908,2.3128516105632944 -132.42022556301455,2.987510948681578 -132.42022556301455,3.469410475908931 -132.51660546846003,3.9513100031362582 -132.51660546846003,4.24044971947268 -132.70936527935095,5.20424877392736 -132.70936527935095,5.493388490263756 -132.80574518479642,6.16804782838204 -132.80574518479642,6.553567450163927 -132.9021250902419,7.131846882836745 -132.99850499568737,7.902886126400494 -132.99850499568737,8.192025842736891 -132.99850499568737,8.673925369964243 -132.99850499568737,10.216003857091742 -132.99850499568737,10.890663195210026 -133.09488490113284,14.263959885801418 -133.09488490113284,14.938619223919702 -133.09488490113284,15.324138845701588 -133.09488490113284,15.998798183819847 -133.09488490113284,16.28793790015627 -133.28764471202376,19.2757149689658 -133.28764471202376,20.8177934560933 -132.99850499568737,23.130911186784544 -132.99850499568737,23.42005090312094 -132.9021250902419,23.709190619457363 -132.9021250902419,23.99833033579376 -132.80574518479642,24.480229863021112 -132.80574518479642,24.76936957935751 -132.70936527935095,25.25126910658486 -132.61298537390547,25.925928444703146 -132.51660546846003,26.50420787737594 -132.42022556301455,27.178867215494222 -132.2274657521236,27.853526553612507 -132.13108584667813,28.431805986285323 -132.03470594123266,29.395605040740005 -131.74556622489627,30.937683527867513 -131.6491863194508,31.51596296054032 -131.6491863194508,31.80510267687673 -131.45642650855987,32.672521825885944 -131.16728679222345,34.60011993479533 -130.29986764321424,39.708254923405164 -130.20348773776877,40.09377454518704 -130.1071078323233,40.575674072414394 -130.01072792687785,40.96119369419627 -129.81796811598687,41.53947312686907 -128.27588962885937,47.90054688627001 -127.986749912523,48.864345940724704 -127.89037000707752,49.24986556250658 -127.79399010163203,49.63538518428845 -125.77001208727721,55.61093932190751 -124.32431350559517,58.598716390717044 -122.49309530213128,62.35753270309032 -121.91481586945847,63.61047147388141 -121.62567615312204,64.2851308119997 -121.52929624767657,64.5742705283361 -120.95101681500378,66.01996911001814 -120.8546369095583,66.30910882635453 -120.17997757144,67.27290788080923 -119.98721776054907,67.56204759714564 -117.48134021896689,70.74258447684609 -116.71030097540314,71.70638353130079 -116.51754116451222,71.9955232476372 -115.8428818263939,72.76656249120094 -115.07184258283019,73.73036154565563 -114.39718324471188,74.59778069466485 -112.95148466302986,76.33261899268328 -112.56596504124798,77.00727833080157 -111.12026645956595,78.83849653426547 -109.19266835065658,81.34437407584767 -107.65058986352908,83.17559227931157 -106.78317071451987,84.13939133376626 -105.81937166006517,85.29595019911187 -105.33747213283783,85.77784972633923 -105.04833241650142,86.16336934812111 -103.60263383481939,87.89820764613954 -103.02435440214659,88.57286698425781 -102.6388347803647,89.05476651148516 -102.25331515858284,89.44028613326705 -101.96417544224643,89.8258057550489 -101.67503572591002,90.11494547138531 -101.28951610412814,90.59684499861265 -100.90399648234627,90.98236462039455 -100.61485676600986,91.3678842421764 -100.42209695511893,91.65702395851281 -100.13295723878252,91.94616367484922 -99.16915818432783,93.00634263474939 -98.78363856254595,93.39186225653125 -98.39811894076408,93.8737617837586 -97.91621941353674,94.25928140554048 -97.62707969720033,94.54842112187688 -96.95242035908204,95.22308045999516 -96.27776102096378,95.89773979811343 -95.8922413991819,96.28325941989532 -95.50672177740002,96.57239913623172 -94.9284423447272,97.15067856890454 -93.86826338482705,98.2108575288047 -93.0972241412633,98.98189677236844 -92.61532461403596,99.36741639415031 -91.74790546502673,100.23483554315953 -91.36238584324485,100.6203551649414 -89.43478773433549,102.54795327385078 -86.35063076008049,105.53573034266032 -84.42303265117111,107.36694854612423 -83.94113312394376,107.75246816790609 -83.65199340760736,107.94522797879704 -82.78457425859814,108.61988731691531 -80.85697614968876,109.96920599315187 -79.2185177571158,111.1257648584975 -78.15833879721565,111.89680410206125 -73.91762295761502,114.98096107631626 -72.7610640922694,115.84838022532547 -71.99002484870564,116.42665965799829 -71.41174541603283,116.81217927978015 -71.02622579425096,117.19769890156203 -70.5443262670236,117.48683861789843 -69.00224777989611,118.35425776690765 -68.71310806355972,118.5470175777986 -67.55654919821407,119.31805682136235 -67.26740948187768,119.51081663225328 -66.78550995465032,119.79995634858969 -66.49637023831393,119.99271615948061 -65.53257118385923,120.57099559215344 -61.773754871485956,122.88411332284468 -61.38823524970407,122.98049322829014 -57.91855865366721,124.61895162086313 -57.14751941010346,125.004471242645 -56.376480166539714,125.29361095898142 -55.12354139574861,125.8718903916542 -54.73802177396675,126.06465020254517 -54.06336243584847,126.35378991888156 -53.67784281406658,126.5465497297725 -53.195943286839224,126.73930954066346 -52.90680357050283,126.83568944610892 -52.424904043275475,127.02844925699985 -51.94300451604815,127.22120906789078 -51.65386479971173,127.31758897333624 -51.26834517792987,127.5103487842272 -50.690065745257044,127.70310859511812 -50.304546123475184,127.7994885005636 -49.533506879911435,128.1850081223455 -49.24436716357501,128.28138802779094 -48.85884754179315,128.3777679332364 -48.28056810912033,128.6669076495728 -47.89504848733845,128.76328755501828 -47.50952886555658,128.9560473659092 -47.027629338329234,129.0524272713547 -46.738489621992834,129.24518708224562 -46.256590094765485,129.43794689313657 -45.5819307566472,129.727086609473 -44.61813170219252,130.01622632580938 -44.0398522695197,130.30536604214578 -43.461572836846884,130.49812585303673 -42.01587425516485,131.0764052857095 -40.85931538981924,131.2691650966005 -39.99189624081003,131.36554500204593 -39.70275652447361,131.4619249074914 -38.449817753682524,131.65468471838233 -38.1606780373461,131.7510646238278 -37.87153832100971,131.7510646238278 -37.293258888336894,131.84744452927328 -36.618599550218605,132.04020434016422 -36.233079928436744,132.04020434016422 -35.94394021210032,132.1365842456097 -35.65480049576393,132.1365842456097 -34.787381346754714,132.32934405650062 -34.49824163041829,132.32934405650062 -33.245302859627216,132.23296415105517 -32.667023426954394,132.23296415105517 -31.703224372499715,132.04020434016422 -30.932185128935966,132.04020434016422 -30.064765979926726,131.94382443471875 -29.77562626359033,131.84744452927328 -29.390106641808444,131.84744452927328 -28.81182720913565,131.7510646238278 -28.426307587353765,131.7510646238278 -28.13716787101737,131.7510646238278 -27.655268343790013,131.65468471838233 -26.98060900567173,131.65468471838233 -26.113189856662515,131.65468471838233 -25.727670234880655,131.55830481293688 -25.438530518544233,131.4619249074914 -25.149390802207837,131.36554500204593 -24.667491274980485,131.17278519115501 -23.9928319368622,130.8836454748186 -23.60731231508034,130.78726556937312 -22.932652976962054,130.49812585303673 -21.77609411161642,130.01622632580938 -21.486954395280023,129.9198464203639 -20.715915151716274,129.6307067040275 -19.27021657003424,129.0524272713547 -18.981076853697843,128.85966746046373 -18.595557231915954,128.76328755501828 -18.21003761013407,128.57052774412733 -17.535378272015812,128.3777679332364 -17.24623855567939,128.1850081223455 -16.76433902845206,127.99224831145453 -16.186059595779245,127.7994885005636 -15.029500730433607,127.31758897333624 -14.74036101409721,127.22120906789078 -14.451221297760789,127.12482916244531 -13.969321770533462,126.93206935155438 -13.391042337860643,126.73930954066346 -12.427243283405963,126.2574100134361 -12.13810356706954,126.16103010799063 -11.752583945287679,125.8718903916542 -11.463444228951257,125.67913058076327 -11.077924607169395,125.48637076987235 -10.596025079942043,125.10085114809046 -9.632226025487363,124.42619180997218 -9.246706403705476,124.13705209363577 -8.957566687369079,123.94429228274485 -8.668426971032684,123.75153247185392 -8.379287254696262,123.75153247185392 -7.993767632914399,123.84791237729938 -7.704627916577977,123.84791237729938 -7.415488200241581,123.94429228274485 -7.029968578459695,123.94429228274485 -6.548069051232367,124.04067218819031 -5.777029807668618,124.04067218819031 -5.487890091332196,124.13705209363577 -5.005990564104868,124.13705209363577 -4.7168508477684465,124.23343199908125 -4.4277111314320505,124.23343199908125 -4.042191509650163,124.23343199908125 -3.271152266086414,124.32981190452671 -2.7892527388590866,124.42619180997218 -2.114593400740803,124.52257171541767 -1.4399340626225194,124.52257171541767 -0.09061538638595222,124.90809133719952 0.29490423539590976,124.90809133719952 0.6804238571777969,125.004471242645 1.065943478959659,125.10085114809046 1.3550831952960805,125.19723105353594 1.644222911632477,125.19723105353594 2.222502344305295,125.38999086442688 2.608021966087157,125.48637076987235 2.993541587869044,125.48637076987235 3.2826813042054406,125.58275067531781 3.668200925987328,125.67913058076327 4.342860264105611,125.77551048620874 4.631999980442008,125.8718903916542 5.113899507669361,125.96827029709968 5.403039224005757,126.06465020254517 5.7885588457876445,126.16103010799063 6.0776985621240405,126.16103010799063 6.559598089351393,126.2574100134361 6.84873780568779,126.35378991888156 7.234257427469677,126.45016982432703 7.523397143806074,126.45016982432703 7.908916765587961,126.5465497297725 8.872715820042641,126.64292963521795 9.450995252715458,126.93206935155438 10.125654590833742,127.02844925699985 10.414794307170139,127.12482916244531 10.703934023506536,127.12482916244531 11.37859336162482,127.31758897333624 11.764112983406706,127.4139688787817 12.342392416079525,127.5103487842272 13.209811565088739,127.70310859511812 13.498951281425136,127.70310859511812 13.884470903207022,127.7994885005636 15.330169484889055,128.1850081223455 15.715689106670917,128.1850081223455 16.293968539343734,128.28138802779094 16.58310825568013,128.3777679332364 16.872247972016552,128.3777679332364 17.546907310134838,128.4741478386819 18.41432645914405,128.57052774412733 19.95640494627155,128.85966746046373 20.245544662607948,128.85966746046373 20.53468437894437,128.85966746046373 21.016583906171697,128.9560473659092 21.30572362250812,128.9560473659092 21.88400305518091,129.0524272713547 22.365902582408264,129.24518708224562 22.655042298744657,129.3415669876911 22.94418201508108,129.43794689313657 24.10074088042669,129.53432679858201 24.48626050220858,129.6307067040275 25.25729974577233,129.727086609473 25.64281936755419,129.727086609473 26.12471889478154,129.82346651491844 26.51023851656343,129.82346651491844 26.895758138345293,129.9198464203639 27.763177287354505,130.01622632580938 28.534216530918254,130.11260623125483 29.49801558537296,130.2089861367003 29.97991511260029,130.30536604214578 30.750954356164037,130.49812585303673 31.425613694282323,130.49812585303673 32.00389312695514,130.40174594759125 32.48579265418249,130.40174594759125 34.124251046755454,130.2089861367003 34.509770668537314,130.2089861367003 34.8952902903192,130.11260623125483 37.01564821011952,129.9198464203639 37.40116783190138,129.9198464203639 38.65410660269249,129.82346651491844 39.32876594081077,129.727086609473 40.29256499526545,129.727086609473 41.73826357694748,129.6307067040275 43.28034206407498,129.53432679858201 45.4006999838753,129.43794689313657 53.882131663076564,129.0524272713547 54.84593071753122,129.0524272713547 58.41198721901359,128.85966746046373 61.20700447693219,128.76328755501828 64.48392126207811,128.57052774412733 64.96582078930544,128.57052774412733 66.79703899276934,128.76328755501828 67.47169833088765,128.85966746046373 67.76083804722404,128.85966746046373 68.4354973853423,128.85966746046373 70.65223521058812,129.14880717680015 72.38707350860653,128.9560473659092 73.54363237395218,128.85966746046373 75.08571086107968,128.9560473659092 75.47123048286154,129.0524272713547 75.76037019919794,129.0524272713547 76.8205491590981,129.14880717680015 78.07348792988921,129.3415669876911 78.651767362562,129.3415669876911 78.94090707889839,129.43794689313657 88.38613781255437,130.40174594759125 92.9159933684914,130.69088566392767 93.30151299027325,130.5945057584822 93.97617232839157,130.30536604214578 96.38566996452825,129.53432679858201 98.69878769521952,128.76328755501828 100.14448627690156,128.28138802779094 101.10828533135621,127.4139688787817 102.45760400759278,126.16103010799063 102.65036381848371,125.8718903916542 104.96348154917499,123.55877266096296 105.25262126551138,123.26963294462657 106.50556003630248,122.01669417383546 106.79469975263888,121.72755445749907 106.98745956352981,121.43841474116265 107.18021937442074,121.14927502482625 107.46935909075718,120.76375540304439 107.85487871253905,120.28185587581703 108.14401842887544,119.99271615948061 108.43315814521185,119.60719653769875 109.10781748333015,118.73977738868953 109.20419738877561,118.45063767235311 109.68609691600294,117.96873814512578 110.16799644323027,117.19769890156203 110.45713615956672,116.81217927978015 111.03541559223952,116.0411400362164 111.22817540313044,115.75200031988001 111.42093521402137,115.46286060354359 111.6136950249123,115.17372088720718 112.09559455213969,113.92078211641609 112.38473426847608,112.95698306196141 112.57749407936701,112.47508353473407 112.86663379570341,111.89680410206125 113.05939360659434,111.31852466938844 113.1557735120398,110.93300504760657 113.34853332293078,110.45110552037923 113.63767303926718,109.58368637136999 113.73405294471264,109.29454665503359 113.92681275560358,108.71626722236078 114.21595247193997,107.94522797879704 115.17975152639468,105.63211024810577 115.27613143184014,105.15021072087845 115.37251133728562,104.86107100454203 115.66165105362201,104.18641166642375 115.75803095906747,103.89727195008734 115.85441086451294,103.51175232830548 115.9507907699584,103.22261261196907 116.14355058084934,102.83709299018719 116.23993048629485,102.54795327385078 116.33631039174031,102.06605374662344 116.43269029718579,101.77691403028703 116.6254501080767,101.19863459761423 116.72183001352218,100.71673507038689 116.81820991896764,100.42759535405047 117.01096972985857,99.84931592137765 117.10734963530403,99.46379629959578 117.2037295407495,98.98189677236844 117.30010944619497,98.59637715058656 117.39648935164044,98.30723743425015 117.58924916253136,97.72895800157735 117.68562906797683,97.24705847435 117.78200897342235,96.9579187580136 117.78200897342235,96.66877904167718 117.97476878431328,96.28325941989532 " 
stroke="crimson" 
stroke-width="1" 
fill="none"
id="line0" />

</g>
</g>
<g
inkscape:label="Slice 2"
inkscape:groupmode="layer" 
id="layer2" 
></g>
</svg>